<svg 
 xmlns="http://www.w3.org/2000/svg"
 xmlns:xlink="http://www.w3.org/1999/xlink"
 width="21px" height="25px">
<path fill-rule="evenodd"  fill="rgb(245, 116, 56)"
 d="M20.459,10.949 C20.361,10.688 20.112,10.515 19.833,10.515 L11.783,10.515 L16.427,1.487 C16.573,1.203 16.497,0.855 16.246,0.658 C16.125,0.562 15.979,0.515 15.833,0.515 C15.678,0.515 15.523,0.570 15.398,0.677 L10.500,4.907 L0.731,13.343 C0.521,13.526 0.445,13.819 0.542,14.080 C0.639,14.341 0.888,14.515 1.166,14.515 L9.217,14.515 L4.573,23.543 C4.427,23.827 4.503,24.174 4.754,24.371 C4.875,24.467 5.021,24.515 5.167,24.515 C5.322,24.515 5.477,24.460 5.602,24.353 L10.500,20.123 L20.269,11.686 C20.480,11.504 20.555,11.210 20.459,10.949 Z"/>
</svg>