<svg 
 xmlns="http://www.w3.org/2000/svg"
 xmlns:xlink="http://www.w3.org/1999/xlink"
 width="185px" height="198px">
<path fill-rule="evenodd"  fill="rgb(106, 89, 206)"
 d="M122.500,197.500 C125.083,191.250 130.050,177.500 129.250,172.500 C134.333,179.250 149.350,188.900 168.750,173.500 C174.500,177.916 185.150,182.750 181.750,166.750 C185.167,162.250 188.600,151.800 175.000,146.000 C173.833,146.500 171.450,147.950 171.250,149.750 C169.000,149.750 164.400,149.000 164.000,146.000 C177.750,133.417 197.950,100.650 168.750,70.250 C173.417,53.500 179.950,18.100 168.750,10.500 C164.000,12.167 152.800,19.450 146.000,35.250 C132.333,21.417 91.900,1.100 39.500,30.500 C36.083,21.583 27.500,3.100 20.500,0.500 C14.083,10.417 4.300,40.600 16.500,82.000 C17.333,97.916 26.400,133.000 56.000,146.000 C52.417,147.333 44.900,150.600 43.500,153.000 C42.500,150.833 39.250,148.050 34.250,154.250 L0.250,197.500 L29.000,197.500 C32.083,193.750 38.400,185.550 39.000,182.750 L43.500,197.500 L122.500,197.500 Z"/>
</svg>