<svg 
 xmlns="http://www.w3.org/2000/svg"
 xmlns:xlink="http://www.w3.org/1999/xlink"
 width="430px" height="445px">
<path fill-rule="evenodd"  stroke="rgb(255, 255, 255)" stroke-width="1px" stroke-linecap="butt" stroke-linejoin="miter" opacity="0.2" fill="none"
 d="M242.250,224.400 C221.706,224.400 205.100,207.794 205.100,187.250 C205.100,166.706 221.706,150.100 242.250,150.100 C262.794,150.100 279.400,166.706 279.400,187.250 C279.400,207.794 262.794,224.400 242.250,224.400 Z"/>
<path fill-rule="evenodd"  stroke="rgb(255, 255, 255)" stroke-width="1px" stroke-linecap="butt" stroke-linejoin="miter" opacity="0.2" fill="none"
 d="M242.250,249.167 C208.010,249.167 180.333,221.490 180.333,187.250 C180.333,153.010 208.010,125.333 242.250,125.333 C276.490,125.333 304.167,153.010 304.167,187.250 C304.167,221.490 276.490,249.167 242.250,249.167 Z"/>
<path fill-rule="evenodd"  stroke="rgb(255, 255, 255)" stroke-width="1px" stroke-linecap="butt" stroke-linejoin="miter" opacity="0.2" fill="none"
 d="M242.250,273.933 C194.314,273.933 155.567,235.186 155.567,187.250 C155.567,139.314 194.314,100.567 242.250,100.567 C290.186,100.567 328.933,139.314 328.933,187.250 C328.933,235.186 290.186,273.933 242.250,273.933 Z"/>
<path fill-rule="evenodd"  stroke="rgb(255, 255, 255)" stroke-width="1px" stroke-linecap="butt" stroke-linejoin="miter" opacity="0.2" fill="none"
 d="M242.250,298.700 C180.618,298.700 130.800,248.882 130.800,187.250 C130.800,125.618 180.618,75.800 242.250,75.800 C303.882,75.800 353.700,125.618 353.700,187.250 C353.700,248.882 303.882,298.700 242.250,298.700 Z"/>
<path fill-rule="evenodd"  stroke="rgb(255, 255, 255)" stroke-width="1px" stroke-linecap="butt" stroke-linejoin="miter" opacity="0.2" fill="none"
 d="M242.250,323.467 C166.922,323.467 106.033,262.578 106.033,187.250 C106.033,111.922 166.922,51.033 242.250,51.033 C317.578,51.033 378.467,111.922 378.467,187.250 C378.467,262.578 317.578,323.467 242.250,323.467 Z"/>
<path fill-rule="evenodd"  stroke="rgb(255, 255, 255)" stroke-width="1px" stroke-linecap="butt" stroke-linejoin="miter" opacity="0.2" fill="none"
 d="M242.250,348.233 C153.226,348.233 81.267,276.274 81.267,187.250 C81.267,98.226 153.226,26.267 242.250,26.267 C331.274,26.267 403.233,98.226 403.233,187.250 C403.233,276.274 331.274,348.233 242.250,348.233 Z"/>
<path fill-rule="evenodd"  stroke="rgb(255, 255, 255)" stroke-width="1px" stroke-linecap="butt" stroke-linejoin="miter" opacity="0.2" fill="none"
 d="M242.250,373.000 C139.530,373.000 56.500,289.970 56.500,187.250 C56.500,84.530 139.530,1.500 242.250,1.500 C344.970,1.500 428.000,84.530 428.000,187.250 C428.000,289.970 344.970,373.000 242.250,373.000 Z"/>
<path fill-rule="evenodd"  fill="rgb(106, 89, 206)"
 d="M249.294,371.026 C258.955,390.629 271.299,432.627 243.391,443.797 C234.267,445.229 216.610,439.716 218.971,406.203 C210.473,411.037 189.882,416.622 175.499,400.296 L156.178,436.279 C144.728,442.723 121.722,448.201 121.293,418.556 L151.079,367.535 C146.696,356.615 137.662,333.432 136.589,328.061 C129.522,335.132 113.833,349.759 107.607,351.692 L125.318,357.868 C118.967,375.322 101.757,412.272 83.724,420.435 C60.199,417.571 10.519,410.070 -0.000,402.981 C3.667,388.928 16.154,357.546 36.764,344.442 C43.025,344.442 57.426,344.442 64.940,344.442 C72.901,331.015 99.235,300.994 140.882,288.319 C143.566,284.559 150.757,276.826 158.056,275.966 C142.850,261.108 111.847,221.724 109.486,183.056 L111.632,169.629 C109.217,147.072 107.070,96.106 117.804,72.690 C121.382,57.831 132.456,37.029 148.127,72.690 L161.008,104.376 C190.616,94.172 258.257,81.927 291.961,114.580 C300.191,103.839 317.562,85.740 321.211,99.274 C325.058,110.105 330.925,137.191 323.626,158.888 C324.431,180.728 322.982,228.168 310.746,243.206 C298.509,258.244 291.335,266.837 289.278,269.253 C282.122,273.818 266.737,283.485 262.443,285.634 C270.494,285.992 288.473,288.480 295.987,295.569 C314.681,294.406 352.447,293.851 353.950,300.940 C355.452,308.029 355.112,303.357 354.755,300.134 L362.000,302.820 L359.853,315.709 L354.755,315.709 L352.339,313.292 L352.339,317.589 L347.241,319.737 C346.257,327.256 339.459,343.367 320.138,347.664 C306.005,356.257 279.134,366.192 284.716,337.191 C278.455,332.716 265.932,322.959 265.932,319.737 C263.696,333.969 257.237,364.152 249.294,371.026 Z"/>
</svg>