<svg 
 xmlns="http://www.w3.org/2000/svg"
 xmlns:xlink="http://www.w3.org/1999/xlink"
 width="190px" height="242px">
<path fill-rule="evenodd"  fill="rgb(106, 89, 206)"
 d="M162.318,235.841 C164.004,230.417 166.585,217.126 163.424,207.362 C161.370,202.563 155.807,191.339 149.991,184.829 L149.991,172.624 C158.841,178.309 178.786,188.710 187.763,184.829 C189.923,183.004 191.809,176.505 182.074,165.113 C176.068,157.707 159.884,141.235 143.195,134.600 C142.984,131.627 139.180,125.368 125.652,124.116 C133.870,116.605 150.022,96.732 148.884,77.329 C161.107,65.072 184.571,37.490 180.651,25.222 C180.599,20.371 171.896,15.051 137.505,32.577 C131.078,26.161 113.229,12.923 93.253,11.296 C99.048,4.567 102.261,-6.199 68.756,4.567 C60.643,8.218 43.943,16.240 42.046,19.119 C30.456,25.952 7.371,47.004 7.750,76.547 C8.277,86.092 11.132,107.592 18.339,117.231 C8.751,116.605 -7.548,118.671 3.957,131.940 C12.755,142.580 35.629,163.861 56.744,163.861 C58.588,171.477 66.448,189.492 83.138,200.634 C75.341,213.882 64.868,240.598 85.350,241.474 C92.726,241.892 107.002,237.375 105.106,215.968 C111.322,219.567 125.905,224.606 134.502,215.968 C134.397,224.053 136.905,240.160 147.778,239.910 C158.652,239.659 162.002,237.093 162.318,235.841 Z"/>
</svg>