<svg 
 xmlns="http://www.w3.org/2000/svg"
 xmlns:xlink="http://www.w3.org/1999/xlink"
 width="218.813px" height="244.542px">
<path fill-rule="evenodd"  stroke="rgb(255, 255, 255)" stroke-width="0.542px" stroke-linecap="butt" stroke-linejoin="miter" opacity="0.2" fill="none"
 d="M109.114,131.174 C97.152,131.174 87.483,121.496 87.483,109.524 C87.483,97.551 97.152,87.873 109.114,87.873 C121.076,87.873 130.746,97.551 130.746,109.524 C130.746,121.496 121.076,131.174 109.114,131.174 Z"/>
<path fill-rule="evenodd"  stroke="rgb(255, 255, 255)" stroke-width="0.542px" stroke-linecap="butt" stroke-linejoin="miter" opacity="0.2" fill="none"
 d="M109.114,145.608 C89.177,145.608 73.062,129.478 73.062,109.524 C73.062,89.569 89.177,73.439 109.114,73.439 C129.051,73.439 145.166,89.569 145.166,109.524 C145.166,129.478 129.051,145.608 109.114,145.608 Z"/>
<path fill-rule="evenodd"  stroke="rgb(255, 255, 255)" stroke-width="0.542px" stroke-linecap="butt" stroke-linejoin="miter" opacity="0.2" fill="none"
 d="M109.114,160.041 C81.202,160.041 58.641,137.460 58.641,109.524 C58.641,81.587 81.202,59.006 109.114,59.006 C137.026,59.006 159.587,81.587 159.587,109.524 C159.587,137.460 137.026,160.041 109.114,160.041 Z"/>
<path fill-rule="evenodd"  stroke="rgb(255, 255, 255)" stroke-width="0.542px" stroke-linecap="butt" stroke-linejoin="miter" opacity="0.2" fill="none"
 d="M109.114,174.475 C73.228,174.475 44.220,145.442 44.220,109.524 C44.220,73.605 73.228,44.572 109.114,44.572 C145.001,44.572 174.008,73.605 174.008,109.524 C174.008,145.442 145.001,174.475 109.114,174.475 Z"/>
<path fill-rule="evenodd"  stroke="rgb(255, 255, 255)" stroke-width="0.542px" stroke-linecap="butt" stroke-linejoin="miter" opacity="0.2" fill="none"
 d="M109.114,188.909 C65.253,188.909 29.799,153.424 29.799,109.524 C29.799,65.623 65.253,30.138 109.114,30.138 C152.975,30.138 188.429,65.623 188.429,109.524 C188.429,153.424 152.975,188.909 109.114,188.909 Z"/>
<path fill-rule="evenodd"  stroke="rgb(255, 255, 255)" stroke-width="0.542px" stroke-linecap="butt" stroke-linejoin="miter" opacity="0.2" fill="none"
 d="M109.114,203.343 C57.278,203.343 15.378,161.405 15.378,109.524 C15.378,57.642 57.278,15.705 109.114,15.705 C160.950,15.705 202.850,57.642 202.850,109.524 C202.850,161.405 160.950,203.343 109.114,203.343 Z"/>
<path fill-rule="evenodd"  stroke="rgb(255, 255, 255)" stroke-width="0.542px" stroke-linecap="butt" stroke-linejoin="miter" opacity="0.2" fill="none"
 d="M109.114,217.776 C49.303,217.776 0.957,169.387 0.957,109.524 C0.957,49.660 49.303,1.271 109.114,1.271 C168.925,1.271 217.271,49.660 217.271,109.524 C217.271,169.387 168.925,217.776 109.114,217.776 Z"/>
<path fill-rule="evenodd"  fill="rgb(106, 89, 206)"
 d="M144.739,205.791 C149.756,215.993 156.166,237.852 141.673,243.665 C136.934,244.411 127.764,241.541 128.991,224.099 C124.578,226.615 113.884,229.522 106.414,221.025 L96.380,239.752 C90.434,243.106 78.486,245.958 78.263,230.528 L93.732,203.974 C91.456,198.290 86.764,186.225 86.206,183.429 C82.537,187.110 74.389,194.722 71.155,195.728 L80.353,198.943 C77.055,208.027 68.117,227.258 58.752,231.507 C46.535,230.016 20.734,226.112 15.271,222.422 C17.176,215.108 23.661,198.775 34.364,191.955 C37.615,191.955 45.095,191.955 48.997,191.955 C53.131,184.967 66.807,169.342 88.436,162.745 C89.830,160.789 93.565,156.763 97.355,156.316 C89.458,148.583 73.357,128.085 72.131,107.960 L73.246,100.972 C71.991,89.232 70.877,62.706 76.451,50.519 C78.309,42.785 84.060,31.959 92.199,50.519 L98.888,67.010 C114.265,61.700 149.393,55.327 166.897,72.321 C171.171,66.731 180.193,57.311 182.088,64.355 C184.085,69.992 187.133,84.089 183.342,95.381 C183.760,106.748 183.008,131.439 176.653,139.266 C170.298,147.092 166.572,151.564 165.504,152.822 C161.787,155.198 153.797,160.230 151.567,161.348 C155.748,161.534 165.086,162.829 168.988,166.519 C178.697,165.913 198.310,165.624 199.090,169.314 C199.871,173.003 199.694,170.572 199.508,168.895 L203.271,170.292 L202.156,177.001 L199.508,177.001 L198.254,175.743 L198.254,177.979 L195.606,179.097 C195.095,183.010 191.564,191.396 181.530,193.632 C174.191,198.104 160.236,203.275 163.135,188.181 C159.883,185.852 153.379,180.774 153.379,179.097 C152.218,186.504 148.864,202.213 144.739,205.791 Z"/>
</svg>