<svg 
 xmlns="http://www.w3.org/2000/svg"
 xmlns:xlink="http://www.w3.org/1999/xlink"
 width="303px" height="386px">
<path fill-rule="evenodd"  fill="rgb(106, 89, 206)"
 d="M259.181,376.967 C261.868,368.308 265.982,347.093 260.944,331.507 C257.670,323.847 248.804,305.929 239.535,295.538 L239.535,276.055 C253.640,285.131 285.426,301.733 299.732,295.538 C303.175,292.624 306.180,282.250 290.665,264.066 C281.094,252.243 255.302,225.949 228.705,215.359 C228.369,210.613 222.307,200.621 200.747,198.623 C213.844,186.634 239.586,154.912 237.772,123.939 C257.250,104.372 294.645,60.344 288.398,40.761 C288.314,33.018 274.445,24.526 219.637,52.501 C209.395,42.260 180.950,21.129 149.114,18.531 C158.349,7.790 163.470,-9.395 110.074,7.790 C97.144,13.619 70.530,26.424 67.507,31.020 C49.037,41.927 12.247,75.531 12.852,122.690 C13.691,137.926 18.242,172.246 29.727,187.633 C14.447,186.634 -11.530,189.931 6.807,211.112 C20.827,228.097 57.281,262.068 90.931,262.068 C93.870,274.224 106.396,302.982 132.994,320.766 C120.568,341.914 103.878,384.560 136.520,385.959 C148.274,386.625 171.026,379.415 168.004,345.245 C177.911,350.990 201.150,359.033 214.852,345.245 C214.684,358.150 218.680,383.861 236.009,383.461 C253.338,383.062 258.677,378.965 259.181,376.967 Z"/>
</svg>