<svg 
 xmlns="http://www.w3.org/2000/svg"
 xmlns:xlink="http://www.w3.org/1999/xlink"
 width="91px" height="97px">
<path fill-rule="evenodd"  fill="rgb(106, 89, 206)"
 d="M60.112,96.500 C61.372,93.454 63.793,86.754 63.403,84.317 C65.882,87.606 73.205,92.309 82.664,84.805 C85.468,86.957 90.661,89.312 89.003,81.515 C90.670,79.322 92.344,74.230 85.712,71.403 C85.143,71.647 83.981,72.354 83.883,73.231 C82.786,73.231 80.543,72.865 80.348,71.403 C87.053,65.271 96.903,49.304 82.664,34.490 C84.940,26.327 88.126,9.077 82.664,5.373 C80.348,6.185 74.887,9.734 71.571,17.434 C64.907,10.693 45.191,0.792 19.639,15.119 C17.973,10.774 13.788,1.767 10.374,0.500 C7.245,5.332 2.475,20.041 8.424,40.216 C8.830,47.972 13.251,65.069 27.685,71.403 C25.938,72.053 22.272,73.645 21.590,74.815 C21.102,73.759 19.517,72.403 17.079,75.424 L0.500,96.500 L14.519,96.500 C16.023,94.673 19.103,90.677 19.395,89.312 L21.590,96.500 L60.112,96.500 Z"/>
</svg>