<svg 
 xmlns="http://www.w3.org/2000/svg"
 xmlns:xlink="http://www.w3.org/1999/xlink"
 width="13px" height="12px">
<path fill-rule="evenodd"  fill="rgb(255, 255, 255)"
 d="M11.494,7.729 C11.390,8.457 10.757,9.006 10.022,9.006 L3.652,9.006 C2.884,9.006 2.233,8.407 2.171,7.639 L1.636,1.285 L0.757,1.133 C0.519,1.091 0.360,0.865 0.400,0.627 C0.442,0.388 0.673,0.233 0.906,0.270 L2.119,0.480 C2.315,0.515 2.464,0.677 2.481,0.875 L2.618,2.509 L3.127,2.509 C3.211,2.509 3.293,2.509 3.374,2.509 L4.310,2.510 C4.385,2.510 4.459,2.510 4.531,2.510 L5.565,2.511 C5.630,2.511 5.694,2.511 5.757,2.511 L6.481,2.511 C6.539,2.511 6.595,2.511 6.651,2.511 L7.288,2.512 C7.338,2.512 7.388,2.512 7.437,2.512 L7.992,2.512 C8.036,2.512 8.079,2.512 8.121,2.512 L8.486,2.513 C8.525,2.513 8.563,2.513 8.601,2.513 L9.023,2.513 C9.056,2.513 9.089,2.513 9.121,2.513 L9.477,2.514 C9.505,2.514 9.532,2.514 9.559,2.514 L9.786,2.514 C9.810,2.514 9.833,2.515 9.856,2.515 L10.108,2.515 C10.128,2.515 10.147,2.515 10.165,2.515 L10.320,2.516 C10.337,2.516 10.352,2.516 10.368,2.516 L10.534,2.516 C10.547,2.516 10.559,2.517 10.571,2.517 L10.669,2.517 C10.679,2.517 10.688,2.517 10.698,2.517 L10.797,2.518 C10.804,2.518 10.811,2.518 10.817,2.518 L10.871,2.518 C10.877,2.518 10.882,2.518 10.887,2.518 L10.926,2.519 C10.929,2.519 10.933,2.519 10.936,2.519 L10.963,2.519 C10.965,2.519 10.968,2.519 10.970,2.519 L10.987,2.520 C10.988,2.520 10.989,2.520 10.991,2.520 L11.003,2.520 C11.004,2.520 11.004,2.521 11.005,2.521 C11.011,2.521 11.012,2.521 11.012,2.521 C11.337,2.569 11.623,2.738 11.818,3.000 C12.013,3.260 12.094,3.582 12.048,3.904 L11.494,7.729 ZM11.117,3.523 C11.062,3.449 10.981,3.401 10.890,3.388 C10.886,3.388 10.876,3.389 10.861,3.389 L10.797,3.389 C10.784,3.389 10.769,3.389 10.753,3.389 L10.423,3.390 C10.395,3.390 10.366,3.390 10.336,3.390 L9.559,3.390 C9.516,3.390 9.471,3.390 9.426,3.390 L8.540,3.389 C8.487,3.389 8.433,3.389 8.379,3.389 L7.877,3.389 C7.820,3.389 7.762,3.388 7.704,3.388 L7.173,3.388 C7.113,3.388 7.052,3.388 6.992,3.388 L6.626,3.387 C6.564,3.387 6.503,3.387 6.441,3.387 L5.882,3.387 C5.820,3.387 5.758,3.387 5.695,3.387 L5.322,3.386 C5.259,3.386 5.197,3.386 5.135,3.386 L4.765,3.386 C4.703,3.386 4.642,3.386 4.581,3.385 L4.038,3.385 C3.979,3.385 3.920,3.385 3.861,3.385 L3.175,3.384 C3.119,3.384 3.065,3.384 3.010,3.384 L2.691,3.384 L3.043,7.568 C3.069,7.890 3.332,8.131 3.653,8.131 L10.021,8.131 C10.325,8.131 10.585,7.905 10.628,7.604 L11.182,3.778 C11.195,3.687 11.172,3.596 11.117,3.523 ZM9.084,5.540 L7.467,5.540 C7.225,5.540 7.030,5.344 7.030,5.103 C7.030,4.861 7.225,4.665 7.467,4.665 L9.084,4.665 C9.326,4.665 9.522,4.861 9.522,5.103 C9.522,5.344 9.326,5.540 9.084,5.540 ZM3.400,10.153 C3.817,10.153 4.156,10.492 4.156,10.908 C4.156,11.325 3.817,11.664 3.400,11.664 C2.984,11.664 2.646,11.325 2.646,10.908 C2.646,10.492 2.984,10.153 3.400,10.153 ZM9.981,10.153 C10.398,10.153 10.737,10.492 10.737,10.908 C10.737,11.325 10.398,11.664 9.981,11.664 C9.564,11.664 9.226,11.325 9.226,10.908 C9.226,10.492 9.564,10.153 9.981,10.153 Z"/>
</svg>