<svg 
 xmlns="http://www.w3.org/2000/svg"
 xmlns:xlink="http://www.w3.org/1999/xlink"
 width="304px" height="201px">
<path fill-rule="evenodd"  fill="rgb(26, 12, 113)"
 d="M303.778,124.037 C300.362,125.704 292.978,130.287 290.778,135.287 C288.028,141.537 312.028,90.787 295.778,82.037 C282.778,75.037 275.028,85.120 272.778,91.037 C271.528,60.704 260.478,10.737 226.278,53.537 L215.278,74.787 C209.778,49.371 192.128,-1.063 165.528,0.537 C138.928,2.137 149.612,78.370 158.278,116.287 C142.528,102.287 107.128,72.987 91.528,67.787 C91.445,82.620 93.228,116.037 101.028,131.037 C77.945,120.537 26.028,105.837 3.028,131.037 C-0.972,139.454 -3.172,165.087 20.028,200.287 L303.778,200.287 L303.778,124.037 Z"/>
</svg>