<svg 
 xmlns="http://www.w3.org/2000/svg"
 xmlns:xlink="http://www.w3.org/1999/xlink"
 width="175px" height="116px">
<path fill-rule="evenodd"  fill="rgb(26, 12, 113)"
 d="M0.000,71.610 C1.966,72.569 6.214,75.207 7.480,78.085 C9.062,81.683 -4.747,52.470 4.603,47.434 C12.083,43.404 16.542,49.208 17.837,52.614 C18.556,35.154 24.914,6.393 44.592,31.029 L50.921,43.261 C54.086,28.630 64.241,-0.400 79.546,0.521 C94.851,1.442 88.704,45.323 83.718,67.148 C92.780,59.090 113.148,42.225 122.124,39.231 C122.172,47.770 121.146,67.005 116.658,75.639 C129.940,69.595 159.811,61.133 173.045,75.639 C175.347,80.483 176.613,95.238 163.264,115.500 L0.000,115.500 L0.000,71.610 Z"/>
</svg>