<svg 
 xmlns="http://www.w3.org/2000/svg"
 xmlns:xlink="http://www.w3.org/1999/xlink"
 width="220px" height="145px">
<path fill-rule="evenodd"  fill="rgb(106, 89, 206)"
 d="M0.000,89.351 C2.473,90.556 7.817,93.871 9.409,97.487 C11.399,102.008 -5.971,65.302 5.790,58.973 C15.199,53.910 20.808,61.203 22.436,65.483 C23.341,43.543 31.339,7.404 56.091,38.360 L64.052,53.729 C68.033,35.346 80.807,-1.130 100.059,0.027 C119.311,1.184 111.579,56.321 105.307,83.745 C116.706,73.619 142.327,52.428 153.617,48.667 C153.678,59.395 152.387,83.564 146.742,94.414 C163.449,86.819 201.024,76.187 217.670,94.414 C220.565,100.501 222.157,119.041 205.366,144.500 L0.000,144.500 L0.000,89.351 Z"/>
</svg>