<svg 
 xmlns="http://www.w3.org/2000/svg"
 xmlns:xlink="http://www.w3.org/1999/xlink"
 width="177px" height="116px">
<path fill-rule="evenodd"  fill="rgb(26, 12, 113)"
 d="M176.500,71.728 C174.512,72.695 170.215,75.357 168.934,78.260 C167.334,81.889 181.301,52.422 171.844,47.342 C164.279,43.278 159.768,49.132 158.459,52.567 C157.731,34.955 151.301,5.944 131.397,30.794 L124.995,43.132 C121.794,28.375 111.523,-0.907 96.042,0.021 C80.562,0.950 86.779,45.213 91.823,67.228 C82.657,59.099 62.055,42.087 52.976,39.068 C52.928,47.681 53.965,67.083 58.505,75.792 C45.071,69.696 14.857,61.161 1.471,75.792 C-0.856,80.679 -2.137,95.562 11.365,116.000 L176.500,116.000 L176.500,71.728 Z"/>
</svg>