<?xml version="1.0" encoding="UTF-8"?>
<svg version="1.1" xmlns="http://www.w3.org/2000/svg" width="200" height="200">
<path d="M0 0 C66 0 132 0 200 0 C200 66 200 132 200 200 C134 200 68 200 0 200 C0 134 0 68 0 0 Z " fill="#FDFDFD" transform="translate(0,0)"/>
<path d="M0 0 C4.29067546 1.65236651 7.1429553 4.8905207 10.296875 8.1015625 C10.89050842 8.69802582 11.48414185 9.29448914 12.09576416 9.9090271 C13.98526627 11.8096981 15.86768392 13.71721474 17.75 15.625 C19.03209065 16.91712468 20.31463761 18.20879676 21.59765625 19.5 C24.73708432 22.66144479 27.87017801 25.8290461 31 29 C29.41291231 32.90816782 26.88462655 35.30036939 23.87890625 38.2109375 C22.85079082 39.21862693 21.82279991 40.22644342 20.79492188 41.234375 C19.18018779 42.80570621 17.56305396 44.3744645 15.94311523 45.94042969 C14.37345853 47.46150577 12.81336975 48.9919225 11.25390625 50.5234375 C10.31877197 51.43013184 9.3836377 52.33682617 8.42016602 53.27099609 C5.96496063 56.03951075 4.48667035 58.62765296 3 62 C3.99 63.175625 3.99 63.175625 5 64.375 C7 67 7 67 7 69 C7.66 69 8.32 69 9 69 C9.66 70.98 10.32 72.96 11 75 C9.8553125 75.86625 9.8553125 75.86625 8.6875 76.75 C6.29571035 78.75242855 4.52314078 80.29219418 3 83 C3.50997942 87.21582985 5.7265195 88.81419165 8.8203125 91.4375 C10 93 10 93 9.83203125 95.0234375 C8.5684638 98.02515172 6.36275638 99.81012823 4 102 C3.34 102.66 2.68 103.32 2 104 C0.1875 104 0.1875 104 -2 103 C-3.7143618 101.04072937 -5.38405168 99.04119788 -7 97 C-7.66 96.67 -8.32 96.34 -9 96 C-8.52794881 91.75153925 -6.11122478 89.73180712 -3 87 C-2.34 87 -1.68 87 -1 87 C-1.64196043 83.92201256 -1.64196043 83.92201256 -3.8125 83.04296875 C-4.8953125 82.61951172 -4.8953125 82.61951172 -6 82.1875 C-8.1875 81.18359375 -8.1875 81.18359375 -10 80 C-11 76.75 -11 76.75 -11 74 C-11.391875 74.598125 -11.78375 75.19625 -12.1875 75.8125 C-14 78 -14 78 -16.27709961 79.30175781 C-19.48504528 81.30251726 -21.76732834 83.62666639 -24.37890625 86.359375 C-25.39215531 87.40275452 -26.40583998 88.44571115 -27.41992188 89.48828125 C-29.00070713 91.12507372 -30.57723712 92.76548 -32.14624023 94.41357422 C-33.6711209 96.01075219 -35.2110746 97.59205825 -36.75390625 99.171875 C-37.66470947 100.1215918 -38.5755127 101.07130859 -39.51391602 102.04980469 C-42 104 -42 104 -44.23901367 103.88818359 C-46.34179046 102.82761213 -47.32430296 101.74517905 -48.75 99.875 C-51.01761345 97.06638232 -53.3706364 94.70955353 -56.125 92.375 C-59.16361131 89.795047 -61.50768496 87.1153938 -64 84 C-66.03007766 82.20228063 -68.09541688 80.46166885 -70.1953125 78.74609375 C-72.06052306 76.94144197 -72.99263363 75.37302283 -74 73 C-72.6696875 71.9171875 -72.6696875 71.9171875 -71.3125 70.8125 C-67.15930563 67.34015716 -63.47036562 63.58954458 -60 59.4375 C-57.56804854 56.55772117 -54.99445392 54.30342609 -52 52 C-48.92857147 49.14285719 -46.75983624 46.79041651 -45 43 C-44.01 42.505 -44.01 42.505 -43 42 C-43.928125 41.690625 -44.85625 41.38125 -45.8125 41.0625 C-47.875 40.375 -49.9375 39.6875 -52 39 C-51.67 37.35 -51.34 35.7 -51 34 C-54.98175544 36.10148204 -57.35039045 38.36905358 -60 42 C-64.28493007 40.63422544 -66.43145705 38.79318655 -69.3125 35.375 C-70.00988281 34.55773437 -70.70726562 33.74046875 -71.42578125 32.8984375 C-71.94527344 32.27195313 -72.46476562 31.64546875 -73 31 C-72.34 29.35 -71.68 27.7 -71 26 C-70.34 26 -69.68 26 -69 26 C-69 25.34 -69 24.68 -69 24 C-67.03852126 22.61061923 -65.03833424 21.2739589 -63 20 C-62.54109375 20.49371094 -62.0821875 20.98742187 -61.609375 21.49609375 C-60.68898438 22.45708984 -60.68898438 22.45708984 -59.75 23.4375 C-59.14671875 24.07558594 -58.5434375 24.71367188 -57.921875 25.37109375 C-55.81905374 27.15336299 -54.76717797 27.95726366 -52 28 C-49.82455365 26.35644899 -49.82455365 26.35644899 -47.875 24.0625 C-46.61615435 22.67776978 -45.33046561 21.31606664 -44 20 C-43.34 20 -42.68 20 -42 20 C-40.80577177 21.45961229 -39.61396623 22.92136194 -38.44140625 24.3984375 C-36.25630272 26.82633031 -33.78610239 28.31537995 -31 30 C-29.68 29.34 -28.36 28.68 -27 28 C-27 27.34 -27 26.68 -27 26 C-25.64453125 24.66796875 -25.64453125 24.66796875 -23.8125 23.1875 C-19.91555727 19.95052337 -16.27287689 16.66790766 -13.1875 12.625 C-10.67496292 9.6099555 -7.88921781 7.18240743 -4.90234375 4.6484375 C-3.18778129 3.16271808 -1.58115759 1.62548911 0 0 Z " fill="#F7F8F8" transform="translate(99,70)"/>
<path d="M0 0 C4.29067546 1.65236651 7.1429553 4.8905207 10.296875 8.1015625 C10.89050842 8.69802582 11.48414185 9.29448914 12.09576416 9.9090271 C13.98526627 11.8096981 15.86768392 13.71721474 17.75 15.625 C19.03209065 16.91712468 20.31463761 18.20879676 21.59765625 19.5 C24.73708432 22.66144479 27.87017801 25.8290461 31 29 C29.33898108 33.24690868 26.18747192 36.15388191 23.0390625 39.33203125 C22.15859756 40.22603889 22.15859756 40.22603889 21.26034546 41.1381073 C20.02070156 42.3922274 18.77825392 43.64358151 17.53320312 44.89233398 C15.62638454 46.81110678 13.73901206 48.7477424 11.8515625 50.68554688 C10.6443813 51.90218592 9.43608526 53.11772004 8.2265625 54.33203125 C7.66288971 54.91523636 7.09921692 55.49844147 6.51846313 56.09931946 C4.90087891 57.69848633 4.90087891 57.69848633 2 60 C-1.70144631 59.53922096 -3.36017287 57.99410523 -5.93359375 55.359375 C-6.66513672 54.61816406 -7.39667969 53.87695312 -8.15039062 53.11328125 C-8.90513672 52.33339844 -9.65988281 51.55351563 -10.4375 50.75 C-11.18837891 49.98558594 -11.93925781 49.22117188 -12.71289062 48.43359375 C-14.16855292 46.95104588 -15.62137911 45.4657068 -17.07104492 43.97729492 C-19.36046818 41.63049844 -21.67547474 39.31198286 -24 37 C-26 35 -28 33 -30 31 C-28.43638038 27.16202456 -25.97489917 24.8332373 -23 22 C-22.278125 21.236875 -21.55625 20.47375 -20.8125 19.6875 C-19 18 -19 18 -17 18 C-17 17.34 -17 16.68 -17 16 C-16.34 16 -15.68 16 -15 16 C-15 15.34 -15 14.68 -15 14 C-13.34997172 12.64613064 -11.6825613 11.31321858 -10 10 C-9.67 9.34 -9.34 8.68 -9 8 C-8.34 8 -7.68 8 -7 8 C-6.6596875 7.13375 -6.6596875 7.13375 -6.3125 6.25 C-4.66961977 3.4336339 -2.60466773 1.91922886 0 0 Z " fill="#3A3B37" transform="translate(55,26)"/>
<path d="M0 0 C4.29067546 1.65236651 7.1429553 4.8905207 10.296875 8.1015625 C10.89050842 8.69802582 11.48414185 9.29448914 12.09576416 9.9090271 C13.98526627 11.8096981 15.86768392 13.71721474 17.75 15.625 C19.03209065 16.91712468 20.31463761 18.20879676 21.59765625 19.5 C24.73708432 22.66144479 27.87017801 25.8290461 31 29 C29.33898108 33.24690868 26.18747192 36.15388191 23.0390625 39.33203125 C22.15859756 40.22603889 22.15859756 40.22603889 21.26034546 41.1381073 C20.02070156 42.3922274 18.77825392 43.64358151 17.53320312 44.89233398 C15.62638454 46.81110678 13.73901206 48.7477424 11.8515625 50.68554688 C10.6443813 51.90218592 9.43608526 53.11772004 8.2265625 54.33203125 C7.66288971 54.91523636 7.09921692 55.49844147 6.51846313 56.09931946 C4.90087891 57.69848633 4.90087891 57.69848633 2 60 C-2.28166778 59.55255323 -4.14607692 57.06796732 -7 54 C-7.763125 53.278125 -8.52625 52.55625 -9.3125 51.8125 C-11 50 -11 50 -11 48 C-11.556875 47.79375 -12.11375 47.5875 -12.6875 47.375 C-15.26083139 45.84491107 -16.73050355 43.99204548 -18.5625 41.65625 C-20.6716724 39.22611659 -23.12916709 37.29200393 -25.64453125 35.296875 C-26.09183594 34.86890625 -26.53914063 34.4409375 -27 34 C-27 33.34 -27 32.68 -27 32 C-27.99 31.67 -28.98 31.34 -30 31 C-30 30.34 -30 29.68 -30 29 C-28.56656149 27.76657616 -27.12731337 26.53891496 -25.65234375 25.35546875 C-22.44779883 22.72668131 -19.64981119 19.84475455 -17.125 16.5625 C-14.86979279 13.84298542 -12.44348176 11.73383706 -9.73828125 9.48046875 C-7.35541013 7.45101222 -5.18158051 5.24217997 -3 3 C-2 2 -1 1 0 0 Z " fill="#393A36" transform="translate(143,114)"/>
<path d="M0 0 C4.29067546 1.65236651 7.1429553 4.8905207 10.296875 8.1015625 C10.89050842 8.69802582 11.48414185 9.29448914 12.09576416 9.9090271 C13.98526627 11.8096981 15.86768392 13.71721474 17.75 15.625 C19.03209065 16.91712468 20.31463761 18.20879676 21.59765625 19.5 C24.73708432 22.66144479 27.87017801 25.8290461 31 29 C29.34763349 33.29067546 26.1094793 36.1429553 22.8984375 39.296875 C22.30197418 39.89050842 21.70551086 40.48414185 21.0909729 41.09576416 C19.1903019 42.98526627 17.28278526 44.86768392 15.375 46.75 C14.08287532 48.03209065 12.79120324 49.31463761 11.5 50.59765625 C8.33855521 53.73708432 5.1709539 56.87017801 2 60 C-3.0805699 57.56735424 -7.22948718 54.18945869 -11 50 C-11 49.34 -11 48.68 -11 48 C-11.90105469 47.60748047 -11.90105469 47.60748047 -12.8203125 47.20703125 C-15.13404277 45.92577201 -16.2545833 44.75192918 -17.875 42.6875 C-19.88577751 40.22532346 -21.88320257 38.16213193 -24.375 36.1875 C-25.24125 35.465625 -26.1075 34.74375 -27 34 C-27 33.34 -27 32.68 -27 32 C-27.99 31.67 -28.98 31.34 -30 31 C-30 30.34 -30 29.68 -30 29 C-28.56656149 27.76657616 -27.12731337 26.53891496 -25.65234375 25.35546875 C-22.44779883 22.72668131 -19.64981119 19.84475455 -17.125 16.5625 C-14.86979279 13.84298542 -12.44348176 11.73383706 -9.73828125 9.48046875 C-7.35541013 7.45101222 -5.18158051 5.24217997 -3 3 C-2 2 -1 1 0 0 Z " fill="#3B3D39" transform="translate(143,26)"/>
<path d="M0 0 C4.97344968 2.02622024 8.05946 5.83670052 11.375 9.9375 C13.74500172 12.84410589 16.42537383 15.1673667 19.30078125 17.5625 C23.28585336 20.9337794 27.10029574 24.65044361 30 29 C29.43605179 33.61678679 26.28373447 36.18390909 23.13671875 39.33203125 C22.25413139 40.22603889 22.25413139 40.22603889 21.35371399 41.1381073 C20.1092379 42.39337581 18.86077567 43.64470323 17.60864258 44.89233398 C15.69086579 46.80913592 13.79541247 48.74627753 11.90039062 50.68554688 C10.6888025 51.90233998 9.47595352 53.11787921 8.26171875 54.33203125 C7.69490891 54.91523636 7.12809906 55.49844147 6.54411316 56.09931946 C4.91674805 57.69848633 4.91674805 57.69848633 2 60 C-0.46302147 59.68265002 -1.63218061 59.35771446 -3.421875 57.6171875 C-4.07929687 56.75480469 -4.07929687 56.75480469 -4.75 55.875 C-7.01761345 53.06638232 -9.3706364 50.70955353 -12.125 48.375 C-15.16361131 45.795047 -17.50768496 43.1153938 -20 40 C-22.03007766 38.20228063 -24.09541688 36.46166885 -26.1953125 34.74609375 C-28.06052306 32.94144197 -28.99263363 31.37302283 -30 29 C-29.113125 28.278125 -28.22625 27.55625 -27.3125 26.8125 C-23.15930563 23.34015716 -19.47036562 19.58954458 -16 15.4375 C-13.56804854 12.55772117 -10.99445392 10.30342609 -8 8 C-6.31337542 6.35353315 -4.64488294 4.68816933 -3 3 C-2 2 -1 1 0 0 Z " fill="#3A3C38" transform="translate(55,114)"/>
<path d="M0 0 C4.29067546 1.65236651 7.1429553 4.8905207 10.296875 8.1015625 C10.89050842 8.69802582 11.48414185 9.29448914 12.09576416 9.9090271 C13.98526627 11.8096981 15.86768392 13.71721474 17.75 15.625 C19.03209065 16.91712468 20.31463761 18.20879676 21.59765625 19.5 C24.73708432 22.66144479 27.87017801 25.8290461 31 29 C29.34763349 33.29067546 26.1094793 36.1429553 22.8984375 39.296875 C22.30197418 39.89050842 21.70551086 40.48414185 21.0909729 41.09576416 C19.1903019 42.98526627 17.28278526 44.86768392 15.375 46.75 C14.08287532 48.03209065 12.79120324 49.31463761 11.5 50.59765625 C8.33855521 53.73708432 5.1709539 56.87017801 2 60 C-2.05574406 58.56737399 -3.90731213 57.13436819 -6.55078125 53.70703125 C-8.21581339 51.74579393 -10.03669465 50.16125837 -12 48.5 C-15.44555503 45.56513699 -18.16720935 42.52184783 -21 39 C-23.59285424 36.28367651 -25.87354781 34.08430146 -29 32 C-29 30.68 -29 29.36 -29 28 C-28.34 28 -27.68 28 -27 28 C-27 27.34 -27 26.68 -27 26 C-25.64453125 24.66796875 -25.64453125 24.66796875 -23.8125 23.1875 C-19.91555727 19.95052337 -16.27287689 16.66790766 -13.1875 12.625 C-10.67496292 9.6099555 -7.88921781 7.18240743 -4.90234375 4.6484375 C-3.18778129 3.16271808 -1.58115759 1.62548911 0 0 Z " fill="#3A3C38" transform="translate(99,70)"/>
<path d="M0 0 C0.74765625 0.30292969 1.4953125 0.60585938 2.265625 0.91796875 C4.40810228 1.76577762 6.57523303 2.55133156 8.75 3.3125 C12 5 12 5 12.9375 7.6875 C12.958125 8.450625 12.97875 9.21375 13 10 C13.5775 10.061875 14.155 10.12375 14.75 10.1875 C17.91500782 11.33041949 18.92423528 13.34763397 21 16 C22.29300506 17.16778773 23.60745624 18.31207836 24.9375 19.4375 C27.47045798 21.59380996 29.72642544 23.72071039 31.8125 26.3125 C33.89880609 29.14569422 33.89880609 29.14569422 37 31 C37 31.66 37 32.32 37 33 C37.598125 33.268125 38.19625 33.53625 38.8125 33.8125 C40.97224808 34.98493467 42.35790256 36.19369282 44 38 C47.21524305 36.59155282 49.32183868 34.89655214 51.75 32.375 C52.36359375 31.74335937 52.9771875 31.11171875 53.609375 30.4609375 C54.06828125 29.97882813 54.5271875 29.49671875 55 29 C55 29.99 55 30.98 55 32 C54 33 53 34 52 35 C50.71275836 37.51012121 49.95338665 39.23087967 50.125 42.0625 C51.27511953 44.60919325 52.94266309 46.14176021 55 48 C55.59167969 47.68804687 56.18335938 47.37609375 56.79296875 47.0546875 C63.2390921 43.87894647 63.2390921 43.87894647 66.75 44.4375 C69.57114442 46.39662807 71.79725508 48.35670609 74 51 C74 55 74 55 72.625 56.75 C71 58 71 58 69 58 C68.34 59.32 67.68 60.64 67 62 C63 62 63 62 60.25 59.625 C58 57 58 57 58 55 C53.20080149 55.29086052 50.98780657 57.57111305 47.74609375 60.8203125 C46 62 46 62 43.90234375 61.8046875 C42 61 42 61 40.125 59 C37.42542877 56.45922708 35.65671233 56.22854452 32 56 C29.72349255 56.3577614 29.72349255 56.3577614 28 57 C28.66 55.35 29.32 53.7 30 52 C26.10156089 47.97816854 22.18712984 43.97288565 18.25683594 39.98217773 C16.92155669 38.62171986 15.59079482 37.25681309 14.26464844 35.88745117 C12.35995761 33.92226007 10.4397068 31.97352968 8.515625 30.02734375 C7.92380432 29.40971664 7.33198364 28.79208954 6.722229 28.15574646 C4.87607598 26.24982379 4.87607598 26.24982379 2 24 C-0.1585173 24.27122435 -0.1585173 24.27122435 -2 25 C-1.87625 24.2575 -1.7525 23.515 -1.625 22.75 C-1.74875 21.8425 -1.8725 20.935 -2 20 C-4.85251385 17.82053354 -4.85251385 17.82053354 -8 16 C-10.1670328 12.7494508 -10.63926695 11.77281654 -10 8 C-7.8125 5.76171875 -7.8125 5.76171875 -5 3.6875 C-4.071875 2.99011719 -3.14375 2.29273438 -2.1875 1.57421875 C-1.1046875 0.79498047 -1.1046875 0.79498047 0 0 Z " fill="#F9FAF9" transform="translate(99,47)"/>
<path d="M0 0 C5.07227888 2.35267403 8.85781036 5.74189816 11 11 C10.236875 11.5775 9.47375 12.155 8.6875 12.75 C6.29571035 14.75242855 4.52314078 16.29219418 3 19 C3.50997942 23.21582985 5.7265195 24.81419165 8.8203125 27.4375 C10 29 10 29 9.83203125 31.0234375 C8.5684638 34.02515172 6.36275638 35.81012823 4 38 C3.34 38.66 2.68 39.32 2 40 C0.1875 40 0.1875 40 -2 39 C-3.7143618 37.04072937 -5.38405168 35.04119788 -7 33 C-7.66 32.67 -8.32 32.34 -9 32 C-8.52794881 27.75153925 -6.11122478 25.73180712 -3 23 C-2.34 23 -1.68 23 -1 23 C-1.15404113 17.91664275 -4.02068432 15.64245282 -7.50390625 12.35546875 C-7.99761719 11.90816406 -8.49132812 11.46085938 -9 11 C-7.59155282 7.78475695 -5.89655214 5.67816132 -3.375 3.25 C-2.74335937 2.63640625 -2.11171875 2.0228125 -1.4609375 1.390625 C-0.73777344 0.70226562 -0.73777344 0.70226562 0 0 Z " fill="#0FAD87" transform="translate(99,134)"/>
<path d="M0 0 C0.44730469 0.40992187 0.89460938 0.81984375 1.35546875 1.2421875 C2.26232422 2.05042969 2.26232422 2.05042969 3.1875 2.875 C3.77917969 3.40867187 4.37085938 3.94234375 4.98046875 4.4921875 C7.21598073 6.16125447 9.38105679 7.0682171 12 8 C12.55429687 7.4225 13.10859375 6.845 13.6796875 6.25 C14.76636719 5.13625 14.76636719 5.13625 15.875 4 C16.59429687 3.2575 17.31359375 2.515 18.0546875 1.75 C20 0 20 0 22 0 C23.24588984 1.47539586 24.48812639 2.95449544 25.69140625 4.46484375 C27.25981645 6.3047996 28.99275368 7.66183579 31 9 C30.1875 10.9375 30.1875 10.9375 29 13 C28.01 13.33 27.02 13.66 26 14 C25.690625 14.639375 25.38125 15.27875 25.0625 15.9375 C23.7657662 18.45468915 22.5778263 18.96886948 20 20 C16.80800833 17.58443874 14.25283313 15.31996462 12 12 C8.57294112 13.07707565 6.99245877 14.00810683 4.5 16.6875 C2 19 2 19 -0.4375 19.25 C-4.26253245 17.38413051 -6.45800257 14.34565297 -9 11 C-8.34 9.35 -7.68 7.7 -7 6 C-6.34 6 -5.68 6 -5 6 C-5 5.34 -5 4.68 -5 4 C-3.37373596 2.61767557 -1.7074998 1.28062485 0 0 Z " fill="#07B086" transform="translate(35,90)"/>
<path d="M0 0 C1.21334519 1.50848321 2.4260764 3.01747454 3.6328125 4.53125 C5.50722146 6.54490077 7.37142011 7.289573 10 8 C10.66 8 11.32 8 12 8 C12.2475 7.401875 12.495 6.80375 12.75 6.1875 C14.22877798 3.59963854 15.34261755 2.36665383 18 1 C22.46987676 1.9168978 25.13384979 4.56061975 28 8 C28 12 28 12 26.625 13.75 C25 15 25 15 23 15 C22.34 16.32 21.68 17.64 21 19 C17 19 17 19 14.25 16.625 C12 14 12 14 12 12 C7.20080149 12.29086052 4.98780657 14.57111305 1.74609375 17.8203125 C0 19 0 19 -1.98046875 18.90234375 C-4.4610316 17.79400716 -5.88721445 16.40775394 -7.75 14.4375 C-8.36359375 13.79683594 -8.9771875 13.15617187 -9.609375 12.49609375 C-10.06828125 12.00238281 -10.5271875 11.50867188 -11 11 C-9.60249952 7.84164893 -7.94801766 5.67727175 -5.5 3.25 C-4.8915625 2.63640625 -4.283125 2.0228125 -3.65625 1.390625 C-2 0 -2 0 0 0 Z " fill="#0FAD87" transform="translate(145,90)"/>
<path d="M0 0 C4.42834676 1.39176612 7.03101453 3.43721744 10 7 C10 11 10 11 7.6875 13.5625 C6.800625 14.366875 5.91375 15.17125 5 16 C4.401875 16.598125 3.80375 17.19625 3.1875 17.8125 C2.795625 18.204375 2.40375 18.59625 2 19 C-1.21524305 17.59155282 -3.32183868 15.89655214 -5.75 13.375 C-6.36359375 12.74335937 -6.9771875 12.11171875 -7.609375 11.4609375 C-8.06828125 10.97882812 -8.5271875 10.49671875 -9 10 C-7.61811547 6.78956118 -6.07578097 4.95063635 -3.375 2.75 C-2.74335937 2.22921875 -2.11171875 1.7084375 -1.4609375 1.171875 C-0.73777344 0.59179688 -0.73777344 0.59179688 0 0 Z " fill="#04B188" transform="translate(99,47)"/>
<path d="M0 0 C3.21043882 1.38188453 5.04936365 2.92421903 7.25 5.625 C7.77078125 6.25664063 8.2915625 6.88828125 8.828125 7.5390625 C9.40820312 8.26222656 9.40820312 8.26222656 10 9 C8.5661989 14.01830384 6.2101103 16.13712499 2 19 C-1.22803557 19.19563852 -2.18447918 17.83748263 -4.625 15.6875 C-6.6021566 13.45019121 -7.88724217 11.73131467 -9 9 C-6.31941902 5.42589203 -3.57410797 2.68058098 0 0 Z " fill="#07AF84" transform="translate(99,26)"/>
<path d="M0 0 C0.66 0 1.32 0 2 0 C2 1.32 2 2.64 2 4 C2.99 3.67 3.98 3.34 5 3 C5 3.66 5 4.32 5 5 C5.66 5 6.32 5 7 5 C7 5.66 7 6.32 7 7 C6.01 6.67 5.02 6.34 4 6 C2.10134397 8.97180943 0.64544429 11.51460083 0 15 C0.66 15.33 1.32 15.66 2 16 C2.36906854 22.5202109 2.36906854 22.5202109 0.75 24.625 C-0.11625 25.305625 -0.11625 25.305625 -1 26 C-1.5775 26.886875 -2.155 27.77375 -2.75 28.6875 C-5 31 -5 31 -8.4375 31.75 C-12.34803935 30.92672856 -12.73988405 30.57166775 -14.9375 27.5 C-15.64861807 26.34757714 -16.34415558 25.18475122 -17 24 C-16.67 23.34 -16.34 22.68 -16 22 C-14.35 23.98 -12.7 25.96 -11 28 C-6.73794894 27.52643877 -4.71306207 25.15301808 -2 22 C-1.0216361 20.09208749 -1.0216361 20.09208749 -1 18 C-2.4571419 16.12514006 -2.4571419 16.12514006 -4.5 14.5 C-6.53125 12.78125 -6.53125 12.78125 -8 11 C-7.73328917 6.74879103 -5.00442149 4.78458577 -2 2 C-1.34 1.34 -0.68 0.68 0 0 Z " fill="#E6FAF8" transform="translate(109,145)"/>
<path d="M0 0 C2.25 0.9375 2.25 0.9375 4.25 3.9375 C4.375 6.625 4.375 6.625 4.25 8.9375 C3.59 8.9375 2.93 8.9375 2.25 8.9375 C1.92 10.2575 1.59 11.5775 1.25 12.9375 C0.59 12.9375 -0.07 12.9375 -0.75 12.9375 C-0.75 13.5975 -0.75 14.2575 -0.75 14.9375 C-4.10250701 14.36174336 -5.68818629 13.34443737 -8 10.875 C-8.52078125 10.32714844 -9.0415625 9.77929688 -9.578125 9.21484375 C-9.96484375 8.79332031 -10.3515625 8.37179688 -10.75 7.9375 C-9.02744305 3.11434055 -5.21110587 -0.11843422 0 0 Z " fill="#07AF85" transform="translate(100.75,137.0625)"/>
<path d="M0 0 C0 0.99 0 1.98 0 3 C-1 4 -2 5 -3 6 C-4.28724164 8.51012121 -5.04661335 10.23087967 -4.875 13.0625 C-3.66029707 15.75219933 -2.362477 17.22814225 0 19 C2.70705512 18.85974801 2.70705512 18.85974801 5 18 C3.54976303 21.7464455 3.54976303 21.7464455 1.1875 22.8359375 C-1 23 -1 23 -3.140625 21.63671875 C-4.18476563 20.67185547 -4.18476563 20.67185547 -5.25 19.6875 C-5.95640625 19.05199219 -6.6628125 18.41648437 -7.390625 17.76171875 C-9 16 -9 16 -9 14 C-10.29854721 15.07507629 -11.58858361 16.16043736 -12.875 17.25 C-13.59429687 17.85328125 -14.31359375 18.4565625 -15.0546875 19.078125 C-16.9917088 20.9918087 -18.0817887 22.44589499 -19 25 C-18.67 25.66 -18.34 26.32 -18 27 C-19.32 27 -20.64 27 -22 27 C-22 25.02 -22 23.04 -22 21 C-20.68 20.67 -19.36 20.34 -18 20 C-17.979375 19.236875 -17.95875 18.47375 -17.9375 17.6875 C-17 15 -17 15 -13.4375 13.1875 C-12.303125 12.795625 -11.16875 12.40375 -10 12 C-10.33 11.34 -10.66 10.68 -11 10 C-10.18595703 9.29423828 -10.18595703 9.29423828 -9.35546875 8.57421875 C-8.64003906 7.95160156 -7.92460937 7.32898438 -7.1875 6.6875 C-6.47980469 6.07261719 -5.77210938 5.45773438 -5.04296875 4.82421875 C-3.29863261 3.26665665 -1.63221959 1.67341125 0 0 Z " fill="#EBF0EF" transform="translate(154,76)"/>
<path d="M0 0 C0.99 0 1.98 0 3 0 C3.495 1.485 3.495 1.485 4 3 C2.54634731 4.17249353 1.08692581 5.33783816 -0.375 6.5 C-1.18710938 7.1496875 -1.99921875 7.799375 -2.8359375 8.46875 C-5 10 -5 10 -7 10 C-7.33 11.32 -7.66 12.64 -8 14 C-8.54269531 13.79503906 -9.08539063 13.59007813 -9.64453125 13.37890625 C-10.35996094 13.10949219 -11.07539062 12.84007813 -11.8125 12.5625 C-12.52019531 12.29566406 -13.22789063 12.02882813 -13.95703125 11.75390625 C-15.62672396 11.13774814 -17.31157704 10.56280765 -19 10 C-18.67 8.35 -18.34 6.7 -18 5 C-21.98175544 7.10148204 -24.35039045 9.36905358 -27 13 C-29.475 12.01 -29.475 12.01 -32 11 C-30.948125 10.1646875 -30.948125 10.1646875 -29.875 9.3125 C-26.88655739 6.90875268 -23.94059762 4.46189568 -21 2 C-18.11919043 3.17366316 -16.65742801 4.35092741 -14.4375 6.625 C-12.2090916 9.34893236 -12.2090916 9.34893236 -9 9 C-6.91453301 7.53672181 -6.91453301 7.53672181 -4.875 5.625 C-4.17117187 4.99851562 -3.46734375 4.37203125 -2.7421875 3.7265625 C-0.91811354 2.10330863 -0.91811354 2.10330863 0 0 Z " fill="#D7F7F2" transform="translate(66,99)"/>
<path d="M0 0 C0.99 0.33 1.98 0.66 3 1 C3 1.66 3 2.32 3 3 C5.475 3.99 5.475 3.99 8 5 C8 6.65 8 8.3 8 10 C6.68 10 5.36 10 4 10 C4 10.99 4 11.98 4 13 C0.3586795 13.33102914 -1.41472925 13.42019439 -4.4375 11.25 C-6 9 -6 9 -6.0625 7.0625 C-4.55963318 4.1451703 -2.39425877 2.21008502 0 0 Z " fill="#05B285" transform="translate(143,93)"/>
<path d="M0 0 C1.21525633 1.51085922 2.4293891 3.02266758 3.6328125 4.54296875 C5.47633958 6.50764189 7.4905514 7.11830184 10 8 C10.99 9.485 10.99 9.485 12 11 C11.319375 11.20625 10.63875 11.4125 9.9375 11.625 C6.55522084 13.2081945 4.3853886 15.25274612 1.74609375 17.85546875 C0 19 0 19 -1.98046875 18.8984375 C-4.46350919 17.79379668 -5.88677605 16.40821764 -7.75 14.4375 C-8.36359375 13.79683594 -8.9771875 13.15617187 -9.609375 12.49609375 C-10.06828125 12.00238281 -10.5271875 11.50867188 -11 11 C-9.60249952 7.84164893 -7.94801766 5.67727175 -5.5 3.25 C-4.8915625 2.63640625 -4.283125 2.0228125 -3.65625 1.390625 C-2 0 -2 0 0 0 Z M-4.5625 5.25 C-7.41501734 8.22595471 -7.41501734 8.22595471 -8 12 C-6.52311011 14.39450853 -6.52311011 14.39450853 -4 16 C-0.832168 16.33448259 -0.832168 16.33448259 2 16 C2 15.01 2 14.02 2 13 C3.32 13 4.64 13 6 13 C6 11.35 6 9.7 6 8 C5.195625 7.731875 4.39125 7.46375 3.5625 7.1875 C2.716875 6.795625 1.87125 6.40375 1 6 C0.67 5.01 0.34 4.02 0 3 C-2.31787296 2.78006628 -2.31787296 2.78006628 -4.5625 5.25 Z " fill="#35A88A" transform="translate(145,90)"/>
<path d="M0 0 C1.32 0 2.64 0 4 0 C4 0.66 4 1.32 4 2 C4.5775 2.061875 5.155 2.12375 5.75 2.1875 C8.88690987 3.32027301 10.09167504 5.34197595 12 8 C12.33 7.34 12.66 6.68 13 6 C13.66 6 14.32 6 15 6 C15 6.99 15 7.98 15 9 C16.32 9 17.64 9 19 9 C19.33 8.34 19.66 7.68 20 7 C21.32 7 22.64 7 24 7 C23.09515208 8.15518918 22.1755794 9.29885406 21.25 10.4375 C20.73953125 11.07558594 20.2290625 11.71367188 19.703125 12.37109375 C17.72354845 14.26440435 16.70923176 14.72374616 14 15 C12.26074219 13.84423828 12.26074219 13.84423828 10.546875 12.0703125 C9.928125 11.43996094 9.309375 10.80960938 8.671875 10.16015625 C8.03765625 9.48855469 7.4034375 8.81695312 6.75 8.125 C6.1003125 7.46113281 5.450625 6.79726562 4.78125 6.11328125 C0 1.18136161 0 1.18136161 0 0 Z " fill="#4A4C45" transform="translate(40,71)"/>
<path d="M0 0 C1.76462683 3.08809695 2 4.23312136 2 8 C5.54518884 6.60240095 5.54518884 6.60240095 9 5 C8.98839844 5.66386719 8.97679687 6.32773438 8.96484375 7.01171875 C8.88106591 13.56306787 8.88106591 13.56306787 10 20 C5.81682823 16.49192224 1.81136393 12.91723515 -2 9 C-2.598125 8.443125 -3.19625 7.88625 -3.8125 7.3125 C-5 6 -5 6 -5 4 C-3.37373596 2.61767557 -1.7074998 1.28062485 0 0 Z " fill="#454742" transform="translate(30,139)"/>
<path d="M0 0 C0.33 0.99 0.66 1.98 1 3 C3.00016466 4.20882096 3.00016466 4.20882096 5 5 C3.68 5.33 2.36 5.66 1 6 C0.67 7.98 0.34 9.96 0 12 C-0.66 12 -1.32 12 -2 12 C-1.01 13.485 -1.01 13.485 0 15 C0.66 14.67 1.32 14.34 2 14 C2.33 16.31 2.66 18.62 3 21 C-4.85831622 14.6036961 -4.85831622 14.6036961 -8 11 C-8 9.68 -8 8.36 -8 7 C-7.34 7 -6.68 7 -6 7 C-6 6.34 -6 5.68 -6 5 C-4.04072937 3.2856382 -2.04119788 1.61594832 0 0 Z " fill="#474947" transform="translate(78,91)"/>
<path d="M0 0 C0 0.99 0 1.98 0 3 C0.66 3.33 1.32 3.66 2 4 C2.36906854 10.5202109 2.36906854 10.5202109 0.75 12.625 C0.1725 13.07875 -0.405 13.5325 -1 14 C-1.5775 14.886875 -2.155 15.77375 -2.75 16.6875 C-5 19 -5 19 -8.4375 19.75 C-12.34803935 18.92672856 -12.73988405 18.57166775 -14.9375 15.5 C-15.64861807 14.34757714 -16.34415558 13.18475122 -17 12 C-16.67 11.34 -16.34 10.68 -16 10 C-14.35 11.98 -12.7 13.96 -11 16 C-6.73794894 15.52643877 -4.71306207 13.15301808 -2 10 C-0.76924898 8.0827517 -0.76924898 8.0827517 -1 6 C-2.85164036 3.24743206 -2.85164036 3.24743206 -5 1 C-3 0 -3 0 0 0 Z " fill="#D2F6F1" transform="translate(109,157)"/>
<path d="M0 0 C3.875 1.75 3.875 1.75 5 4 C4.113125 3.896875 3.22625 3.79375 2.3125 3.6875 C-2.00684858 4.09498572 -3.25642975 5.7722703 -6 9 C-5.67 9.99 -5.34 10.98 -5 12 C-4.01 12.33 -3.02 12.66 -2 13 C-0.3125 14.5625 -0.3125 14.5625 1 16 C1.66 14.68 2.32 13.36 3 12 C4.65 12 6.3 12 8 12 C7.67 10.02 7.34 8.04 7 6 C7.99 6.99 8.98 7.98 10 9 C8.5661989 14.01830384 6.2101103 16.13712499 2 19 C-1.22803557 19.19563852 -2.18447918 17.83748263 -4.625 15.6875 C-6.6021566 13.45019121 -7.88724217 11.73131467 -9 9 C-6.31941902 5.42589203 -3.57410797 2.68058098 0 0 Z " fill="#28AB8A" transform="translate(99,26)"/>
<path d="M0 0 C1 3 1 3 0.3125 5.375 C-1.17013562 8.34027124 -2.6868419 10.61880784 -5 13 C-6.32 13 -7.64 13 -9 13 C-9.33 14.32 -9.66 15.64 -10 17 C-11.32 17.33 -12.64 17.66 -14 18 C-14.33 17.01 -14.66 16.02 -15 15 C-14.2575 14.278125 -13.515 13.55625 -12.75 12.8125 C-10.03305551 10.14127166 -10.03305551 10.14127166 -8.0625 7.5 C-5.62313584 4.54319496 -2.99658244 2.38364512 0 0 Z " fill="#42423F" transform="translate(134,123)"/>
<path d="M0 0 C4.56749627 1.86083181 7.88579746 5.03688123 10.3125 9.3125 C10.6528125 10.1478125 10.6528125 10.1478125 11 11 C10.2575 11.515625 9.515 12.03125 8.75 12.5625 C5.46371455 15.47534392 4.01236241 18.12433906 2 22 C1.01 21.67 0.02 21.34 -1 21 C-1 20.01 -1 19.02 -1 18 C-0.34 18 0.32 18 1 18 C1 17.34 1 16.68 1 16 C1.66 15.67 2.32 15.34 3 15 C3.33 14.01 3.66 13.02 4 12 C4.66 12 5.32 12 6 12 C4.69844994 7.92035719 4.69844994 7.92035719 3 4 C2.236875 4.165 1.47375 4.33 0.6875 4.5 C-2 5 -2 5 -5 5 C-3.35 3.35 -1.7 1.7 0 0 Z " fill="#2BAF8A" transform="translate(99,134)"/>
<path d="M0 0 C1.65 0 3.3 0 5 0 C4.67 0.66 4.34 1.32 4 2 C4.969375 2.2475 5.93875 2.495 6.9375 2.75 C7.948125 3.1625 8.95875 3.575 10 4 C10.6875 6.0625 10.6875 6.0625 11 8 C11.99 8.33 12.98 8.66 14 9 C13.67 9.99 13.34 10.98 13 12 C13.969375 12.268125 14.93875 12.53625 15.9375 12.8125 C16.948125 13.204375 17.95875 13.59625 19 14 C19.33 14.99 19.66 15.98 20 17 C16 17 16 17 13.5625 14.75 C12.2940625 13.38875 12.2940625 13.38875 11 12 C10.195625 11.38125 9.39125 10.7625 8.5625 10.125 C5.30124916 7.42054808 2.57089314 4.36601472 0 1 C0 0.67 0 0.34 0 0 Z " fill="#484846" transform="translate(82,112)"/>
<path d="M0 0 C1.98 1.65 3.96 3.3 6 5 C3.37886292 5 1.49064888 4.68707555 -1 4 C-1.99 5.485 -1.99 5.485 -3 7 C-3.66 7 -4.32 7 -5 7 C-5 8.98 -5 10.96 -5 13 C-3.35 12.67 -1.7 12.34 0 12 C0 12.99 0 13.98 0 15 C-0.66 15 -1.32 15 -2 15 C-1.67 16.32 -1.34 17.64 -1 19 C-3.66666667 16.33333333 -6.33333333 13.66666667 -9 11 C-8.34 9.35 -7.68 7.7 -7 6 C-6.34 6 -5.68 6 -5 6 C-5 5.34 -5 4.68 -5 4 C-3.37373596 2.61767557 -1.7074998 1.28062485 0 0 Z " fill="#31AD90" transform="translate(35,90)"/>
<path d="M0 0 C0 1.66666667 0 3.33333333 0 5 C0.33 5.33 0.66 5.66 1 6 C1.10183594 6.63421875 1.20367188 7.2684375 1.30859375 7.921875 C1.81669063 10.14789134 1.81669063 10.14789134 3.84765625 11.265625 C4.57855469 11.59046875 5.30945313 11.9153125 6.0625 12.25 C6.79597656 12.58515625 7.52945313 12.9203125 8.28515625 13.265625 C9.13400391 13.62914063 9.13400391 13.62914063 10 14 C10 15.98 10 17.96 10 20 C4.70987876 15.59156563 -0.18808428 10.92440206 -5 6 C-3.63016497 2.83884224 -3.0109362 2.0072908 0 0 Z " fill="#595A58" transform="translate(30,51)"/>
<path d="M0 0 C1.17825358 0.90172468 2.34231577 1.82201502 3.5 2.75 C4.1496875 3.26046875 4.799375 3.7709375 5.46875 4.296875 C7 6 7 6 7 10 C4.6875 12.5625 4.6875 12.5625 2 15 C1.401875 15.598125 0.80375 16.19625 0.1875 16.8125 C-0.204375 17.204375 -0.59625 17.59625 -1 18 C-4.875 16.25 -4.875 16.25 -6 14 C-3.03 14.495 -3.03 14.495 0 15 C0.33 13.35 0.66 11.7 1 10 C1.66 10 2.32 10 3 10 C3 8.68 3 7.36 3 6 C2.34 6 1.68 6 1 6 C0.67 4.02 0.34 2.04 0 0 Z " fill="#36AC92" transform="translate(102,48)"/>
<path d="M0 0 C1.98 1.32 3.96 2.64 6 4 C5.1875 5.9375 5.1875 5.9375 4 8 C3.01 8.33 2.02 8.66 1 9 C0.690625 9.639375 0.38125 10.27875 0.0625 10.9375 C-1.2342338 13.45468915 -2.4221737 13.96886948 -5 15 C-6.7074998 13.71937515 -8.37373596 12.38232443 -10 11 C-10 10.34 -10 9.68 -10 9 C-7.33333333 9.66666667 -4.66666667 10.33333333 -2 11 C0.06874624 7.00042393 1.37656391 4.43559483 0 0 Z " fill="#39AC90" transform="translate(60,95)"/>
<path d="M0 0 C-1.24674659 2.49349318 -2.69960106 3.46640071 -5 5 C-5.66 5 -6.32 5 -7 5 C-7 5.66 -7 6.32 -7 7 C-8.5 8.625 -8.5 8.625 -10 10 C-8.70700306 12.88437779 -7.34058637 14.87219421 -5 17 C-5.33 17.66 -5.66 18.32 -6 19 C-7.98 18.01 -9.96 17.02 -12 16 C-12 12.7 -12 9.4 -12 6 C-11.01 5.67 -10.02 5.34 -9 5 C-8.5359375 4.01 -8.5359375 4.01 -8.0625 3 C-7 1 -7 1 -5.0625 0.25 C-3 0 -3 0 0 0 Z " fill="#D3F7F2" transform="translate(37,89)"/>
<path d="M0 0 C2.31 0.33 4.62 0.66 7 1 C7.33 2.65 7.66 4.3 8 6 C8.99 6 9.98 6 11 6 C11 6.99 11 7.98 11 9 C12.65 9.33 14.3 9.66 16 10 C15.67 11.32 15.34 12.64 15 14 C15.66 14.33 16.32 14.66 17 15 C12.72436721 14.52492969 10.83439503 12.04697466 8 9 C6.8553125 7.9171875 6.8553125 7.9171875 5.6875 6.8125 C4 5 4 5 4 3 C2.68 2.34 1.36 1.68 0 1 C0 0.67 0 0.34 0 0 Z " fill="#585856" transform="translate(128,159)"/>
<path d="M0 0 C0.99 0.33 1.98 0.66 3 1 C-1.69766975 6.66129431 -6.74723372 11.85228904 -12 17 C-12.33 15.68 -12.66 14.36 -13 13 C-12.38125 12.95875 -11.7625 12.9175 -11.125 12.875 C-10.42375 12.58625 -9.7225 12.2975 -9 12 C-8.28293018 10.01751285 -7.61709587 8.01584651 -7 6 C-4 4 -4 4 -1 4 C-0.67 2.68 -0.34 1.36 0 0 Z " fill="#4C4C4A" transform="translate(77,61)"/>
<path d="M0 0 C0.886875 0.845625 1.77375 1.69125 2.6875 2.5625 C5.26890894 4.73305465 5.26890894 4.73305465 8.625 5 C11.1023609 3.95690067 12.95810406 2.73939284 15 1 C14.6875 3.375 14.6875 3.375 14 6 C10.91111478 8.05925681 10.29064073 8.2390374 6.8125 8.125 C4.9253125 8.063125 4.9253125 8.063125 3 8 C3 7.34 3 6.68 3 6 C2.34 6 1.68 6 1 6 C0.67 4.02 0.34 2.04 0 0 Z " fill="#D0F6F0" transform="translate(136,103)"/>
<path d="M0 0 C0.680625 0.70125 1.36125 1.4025 2.0625 2.125 C4.73069568 4.83153182 7.63524165 7.15633739 10.64453125 9.47265625 C12 11 12 11 12 15 C10.02 15.99 10.02 15.99 8 17 C8.12375 16.2575 8.2475 15.515 8.375 14.75 C8.25125 13.8425 8.1275 12.935 8 12 C5.14748615 9.82053354 5.14748615 9.82053354 2 8 C-0.1519437 4.77208445 -0.20086443 3.71599191 0 0 Z " fill="#D5F5F0" transform="translate(89,55)"/>
<path d="M0 0 C3.21524305 1.40844718 5.32183868 3.10344786 7.75 5.625 C8.67039062 6.57246094 8.67039062 6.57246094 9.609375 7.5390625 C10.29773438 8.26222656 10.29773438 8.26222656 11 9 C9.68 9.33 8.36 9.66 7 10 C6.34 8.68 5.68 7.36 5 6 C4.4225 6.2475 3.845 6.495 3.25 6.75 C2.5075 6.8325 1.765 6.915 1 7 C-1.25 5.0625 -1.25 5.0625 -3 3 C-2.01 2.01 -1.02 1.02 0 0 Z " fill="#4A4B49" transform="translate(55,26)"/>
<path d="M0 0 C3.875 1.75 3.875 1.75 5 4 C4.29875 3.855625 3.5975 3.71125 2.875 3.5625 C-1.60361547 4.24402844 -3.39981848 7.49734998 -6 11 C-8.475 10.01 -8.475 10.01 -11 9 C-9.948125 8.1646875 -9.948125 8.1646875 -8.875 7.3125 C-5.88655739 4.90875268 -2.94059762 2.46189568 0 0 Z " fill="#C2F5EC" transform="translate(45,101)"/>
<path d="M0 0 C4.31730413 0.47409648 6.33647461 3.03396703 9.25 6.0625 C10.14203125 6.98160156 11.0340625 7.90070313 11.953125 8.84765625 C12.62859375 9.55792969 13.3040625 10.26820313 14 11 C12.68 11.33 11.36 11.66 10 12 C9.7525 11.360625 9.505 10.72125 9.25 10.0625 C8.18437567 7.81258459 8.18437567 7.81258459 5.875 7.25 C5.25625 7.1675 4.6375 7.085 4 7 C4 6.01 4 5.02 4 4 C2.68 3.34 1.36 2.68 0 2 C0 1.34 0 0.68 0 0 Z " fill="#4A4B48" transform="translate(156,128)"/>
<path d="M0 0 C0.99 0.33 1.98 0.66 3 1 C2.34 2.65 1.68 4.3 1 6 C0.01 6 -0.98 6 -2 6 C-2.33 7.32 -2.66 8.64 -3 10 C-4.32 10.33 -5.64 10.66 -7 11 C-7.33 10.01 -7.66 9.02 -8 8 C-5.33333333 5.33333333 -2.66666667 2.66666667 0 0 Z " fill="#4A4A48" transform="translate(143,114)"/>
<path d="M0 0 C0.66 0.66 1.32 1.32 2 2 C1.9375 3.9375 1.9375 3.9375 1 6 C-2.12114608 8.25416106 -5.41349495 9.64294404 -9 11 C-9.99 11.495 -9.99 11.495 -11 12 C-9.4943193 8.16735822 -7.23168738 6.462238 -4 4 C-2.64852862 2.68505488 -1.30887458 1.35735142 0 0 Z " fill="#434542" transform="translate(131,38)"/>
<path d="M0 0 C0.33 0.99 0.66 1.98 1 3 C0.01 3 -0.98 3 -2 3 C-2.2475 3.61875 -2.495 4.2375 -2.75 4.875 C-4.22770762 7.38710296 -5.43955177 7.76107344 -8 9 C-8.33 9.99 -8.66 10.98 -9 12 C-10.32 12 -11.64 12 -13 12 C-12.75 10.125 -12.75 10.125 -12 8 C-10.67661368 7.31379969 -9.34050052 6.65213539 -8 6 C-6.38985829 4.46810047 -4.87479233 2.87477511 -3.3671875 1.2421875 C-2 0 -2 0 0 0 Z " fill="#38B091" transform="translate(57,90)"/>
<path d="M0 0 C0.33 0 0.66 0 1 0 C1 1.65 1 3.3 1 5 C0.34 5 -0.32 5 -1 5 C-1.33 6.32 -1.66 7.64 -2 9 C-2.66 9 -3.32 9 -4 9 C-4 9.66 -4 10.32 -4 11 C-4.66 11 -5.32 11 -6 11 C-6.33 9.02 -6.66 7.04 -7 5 C-6.34 5 -5.68 5 -5 5 C-5 4.01 -5 3.02 -5 2 C-3.68 2 -2.36 2 -1 2 C-0.67 1.34 -0.34 0.68 0 0 Z " fill="#04B083" transform="translate(104,141)"/>
<path d="M0 0 C-0.66128906 0.60328125 -1.32257813 1.2065625 -2.00390625 1.828125 C-2.84824219 2.62734375 -3.69257813 3.4265625 -4.5625 4.25 C-5.40941406 5.03890625 -6.25632813 5.8278125 -7.12890625 6.640625 C-9.28740637 8.80181321 -9.28740637 8.80181321 -8.77734375 11.296875 C-8.39255859 12.13992187 -8.39255859 12.13992187 -8 13 C-9.32 13 -10.64 13 -12 13 C-12 11.02 -12 9.04 -12 7 C-10.68 6.67 -9.36 6.34 -8 6 C-7.938125 5.21625 -7.87625 4.4325 -7.8125 3.625 C-7 1 -7 1 -4.5625 -0.375 C-2 -1 -2 -1 0 0 Z " fill="#D4FAF3" transform="translate(144,90)"/>
<path d="M0 0 C0.99 0.33 1.98 0.66 3 1 C2.72712269 5.63891425 0.70642674 7.7350467 -2.4296875 10.86328125 C-4 12 -4 12 -7 12 C-7.33 10.68 -7.66 9.36 -8 8 C-7.236875 7.855625 -6.47375 7.71125 -5.6875 7.5625 C-2.91827092 7.0367406 -2.91827092 7.0367406 0 6 C0 4.02 0 2.04 0 0 Z " fill="#18A782" transform="translate(41,97)"/>
<path d="M0 0 C1.32 0.99 2.64 1.98 4 3 C2.59155282 6.21524305 0.89655214 8.32183868 -1.625 10.75 C-2.57246094 11.67039062 -2.57246094 11.67039062 -3.5390625 12.609375 C-4.02117187 13.06828125 -4.50328125 13.5271875 -5 14 C-5.33 13.01 -5.66 12.02 -6 11 C-5.34 10.01 -4.68 9.02 -4 8 C-3.34 8 -2.68 8 -2 8 C-2 7.01 -2 6.02 -2 5 C-1.34 5 -0.68 5 0 5 C-0.33 4.01 -0.66 3.02 -1 2 C-0.67 1.34 -0.34 0.68 0 0 Z " fill="#51514F" transform="translate(170,52)"/>
<path d="M0 0 C0.99 0 1.98 0 3 0 C3.75 1.6875 3.75 1.6875 4 4 C2.0625 6.75 2.0625 6.75 0 9 C-1.65 8.67 -3.3 8.34 -5 8 C-3.25 4.125 -3.25 4.125 -1 3 C-0.67 2.01 -0.34 1.02 0 0 Z " fill="#04B48A" transform="translate(58,97)"/>
<path d="M0 0 C0.33 0.66 0.66 1.32 1 2 C0.505 2.5775 0.01 3.155 -0.5 3.75 C-2.36980013 6.10400629 -2.36980013 6.10400629 -2 10 C-0.68 10 0.64 10 2 10 C2 10.66 2 11.32 2 12 C1.01 12 0.02 12 -1 12 C-1.33 12.66 -1.66 13.32 -2 14 C-3.65 12.35 -5.3 10.7 -7 9 C-5.44499019 5.18315774 -2.96404505 2.80804268 0 0 Z " fill="#2EAC8D" transform="translate(97,48)"/>
<path d="M0 0 C1.11375 0.185625 2.2275 0.37125 3.375 0.5625 C6.82568861 1.31680657 6.82568861 1.31680657 9 0 C9 0.66 9 1.32 9 2 C9.99 2.33 10.98 2.66 12 3 C11.01 4.32 10.02 5.64 9 7 C6.62051228 6.82374165 5.29774151 6.30280227 3.62109375 4.59765625 C2.37884514 3.09350908 1.18623944 1.54870149 0 0 Z " fill="#494B48" transform="translate(48,167)"/>
<path d="M0 0 C7.48291572 6.15034169 7.48291572 6.15034169 10 10 C7 11 7 11 4 10 C2.8125 6.9375 2.8125 6.9375 2 4 C1.01 4 0.02 4 -1 4 C-0.67 2.68 -0.34 1.36 0 0 Z " fill="#4C4C4A" transform="translate(146,116)"/>
<path d="M0 0 C2.31 0.66 4.62 1.32 7 2 C7.625 4.8125 7.625 4.8125 8 8 C7.01 9.485 7.01 9.485 6 11 C4.68 11 3.36 11 2 11 C1.34 12.32 0.68 13.64 0 15 C-0.66 14.67 -1.32 14.34 -2 14 C-1.21625 13.2575 -0.4325 12.515 0.375 11.75 C2.56504531 9.45566682 3.82731386 7.87841142 5 5 C3.35 3.35 1.7 1.7 0 0 Z " fill="#CDF9F4" transform="translate(104,50)"/>
<path d="M0 0 C0.99 0.66 1.98 1.32 3 2 C1.625 3.5 1.625 3.5 0 5 C-0.66 5 -1.32 5 -2 5 C-2.268125 5.598125 -2.53625 6.19625 -2.8125 6.8125 C-3.98493467 8.97224808 -5.19369282 10.35790256 -7 12 C-7.8125 10.375 -7.8125 10.375 -8 8 C-5.6875 4.75 -5.6875 4.75 -3 2 C-2.34 2 -1.68 2 -1 2 C-0.67 1.34 -0.34 0.68 0 0 Z " fill="#D1F8F2" transform="translate(96,25)"/>
<path d="M0 0 C3.33333333 3.33333333 6.66666667 6.66666667 10 10 C9.67 10.66 9.34 11.32 9 12 C6.03 10.35 3.06 8.7 0 7 C0 4.69 0 2.38 0 0 Z " fill="#D0F6F2" transform="translate(89,143)"/>
<path d="M0 0 C3.875 1.75 3.875 1.75 5 4 C4.113125 3.896875 3.22625 3.79375 2.3125 3.6875 C-1.16296116 3.72612748 -1.16296116 3.72612748 -3.9375 6.1875 C-6.31648345 8.79884527 -6.31648345 8.79884527 -5.8125 11.8125 C-5.544375 12.534375 -5.27625 13.25625 -5 14 C-6.32 13.01 -7.64 12.02 -9 11 C-7.44095325 7.17324889 -4.96833913 4.81992217 -2 2 C-1.34 1.34 -0.68 0.68 0 0 Z " fill="#42AA90" transform="translate(99,26)"/>
<path d="M0 0 C1.80411967 2.75924185 2.0127245 3.88972103 1.625 7.25 C1.41875 8.1575 1.2125 9.065 1 10 C-3.875 7.375 -3.875 7.375 -5 4 C-3.35 2.68 -1.7 1.36 0 0 Z " fill="#505050" transform="translate(30,139)"/>
<path d="M0 0 C4.2742558 1.5830577 6.26531794 4.50568404 9 8 C7.68 8 6.36 8 5 8 C5 7.34 5 6.68 5 6 C2.48916886 7.25541557 2.12874554 8.50063488 1 11 C0.12132271 7.26562152 -0.08912219 3.83225427 0 0 Z " fill="#474946" transform="translate(55,114)"/>
<path d="M0 0 C0.33 0.99 0.66 1.98 1 3 C-1.64 5.64 -4.28 8.28 -7 11 C-8 8 -8 8 -6.5625 4.8125 C-6.046875 3.884375 -5.53125 2.95625 -5 2 C-3.35 2 -1.7 2 0 2 C0 1.34 0 0.68 0 0 Z " fill="#444944" transform="translate(84,143)"/>
<path d="M0 0 C0.33 0 0.66 0 1 0 C1.33 1.98 1.66 3.96 2 6 C2.66 6 3.32 6 4 6 C4.33 7.98 4.66 9.96 5 12 C3.82174642 11.09827532 2.65768423 10.17798498 1.5 9.25 C0.8503125 8.73953125 0.200625 8.2290625 -0.46875 7.703125 C-2 6 -2 6 -2 2 C-1.34 1.34 -0.68 0.68 0 0 Z " fill="#2DAB8B" transform="translate(93,140)"/>
<path d="M0 0 C0.5775 0.680625 1.155 1.36125 1.75 2.0625 C2.86375 3.0215625 2.86375 3.0215625 4 4 C6.39788436 3.78842197 7.85584361 3.07207819 10 2 C9.34 3.98 8.68 5.96 8 8 C6.824375 8.2165625 6.824375 8.2165625 5.625 8.4375 C3.03578982 8.87798925 3.03578982 8.87798925 1 10 C1.020625 9.0925 1.04125 8.185 1.0625 7.25 C1.0110245 4.57327412 0.7784983 2.53011948 0 0 Z " fill="#A6ECE0" transform="translate(94,40)"/>
<path d="M0 0 C0.66 0 1.32 0 2 0 C2 0.66 2 1.32 2 2 C3.65 2 5.3 2 7 2 C6.67 3.32 6.34 4.64 6 6 C7.32 6 8.64 6 10 6 C10 7.32 10 8.64 10 10 C7.13302508 8.71480435 5.02392288 7.42870746 3 5 C3 4.34 3 3.68 3 3 C2.01 2.67 1.02 2.34 0 2 C0 1.34 0 0.68 0 0 Z " fill="#636361" transform="translate(113,143)"/>
<path d="M0 0 C0.66 0 1.32 0 2 0 C0.70700306 2.88437779 -0.65941363 4.87219421 -3 7 C-6.16115776 5.63016497 -6.9927092 5.0109362 -9 2 C-6.03 2 -3.06 2 0 2 C0 1.34 0 0.68 0 0 Z " fill="#464A43" transform="translate(148,79)"/>
<path d="M0 0 C0.99 0.33 1.98 0.66 3 1 C3.33 2.98 3.66 4.96 4 7 C2.02 7 0.04 7 -2 7 C-1.125 1.125 -1.125 1.125 0 0 Z " fill="#0CAB84" transform="translate(99,47)"/>
<path d="M0 0 C1.32 0.33 2.64 0.66 4 1 C2.8553125 2.0828125 2.8553125 2.0828125 1.6875 3.1875 C-0.71133591 5.69790967 -2.35410221 7.96808302 -4 11 C-3.34 11.33 -2.68 11.66 -2 12 C-2.99 12 -3.98 12 -5 12 C-5 9.69 -5 7.38 -5 5 C-3.68 4.67 -2.36 4.34 -1 4 C-0.67 2.68 -0.34 1.36 0 0 Z " fill="#D0F8F1" transform="translate(94,155)"/>
<path d="M0 0 C1.32 0.99 2.64 1.98 4 3 C2.50902342 6.7952131 0.24299151 8.61042731 -3 11 C-2.11223998 7.30099992 -1.05418136 3.65449539 0 0 Z " fill="#50504E" transform="translate(170,140)"/>
<path d="M0 0 C3.18843218 0.25171833 4.59734209 0.56957258 6.8125 2.9375 C8 5 8 5 8 7 C8.66 7 9.32 7 10 7 C9.67 7.66 9.34 8.32 9 9 C8.2575 8.175 7.515 7.35 6.75 6.5 C4.12612615 3.55155147 4.12612615 3.55155147 0 4 C-0.99 4.495 -0.99 4.495 -2 5 C-1.125 1.125 -1.125 1.125 0 0 Z " fill="#D2FBF5" transform="translate(98,132)"/>
<path d="M0 0 C0 0.66 0 1.32 0 2 C1.32 2.33 2.64 2.66 4 3 C4.33 4.65 4.66 6.3 5 8 C2.95880212 6.38405168 0.95927063 4.7143618 -1 3 C-1 2.34 -1 1.68 -1 1 C-2.98 2.32 -4.96 3.64 -7 5 C-7 3.68 -7 2.36 -7 1 C-4 0 -4 0 0 0 Z " fill="#C0F4EB" transform="translate(58,89)"/>
<path d="M0 0 C1.32 0 2.64 0 4 0 C4 0.66 4 1.32 4 2 C4.99 1.67 5.98 1.34 7 1 C7.33 1.99 7.66 2.98 8 4 C8.99 4 9.98 4 11 4 C11 4.66 11 5.32 11 6 C9.234375 6.6796875 9.234375 6.6796875 7 7 C5.078125 5.8203125 5.078125 5.8203125 3.25 4.125 C2.63640625 3.57070312 2.0228125 3.01640625 1.390625 2.4453125 C0 1 0 1 0 0 Z " fill="#4D4E4D" transform="translate(40,159)"/>
<path d="M0 0 C1.32 0.99 2.64 1.98 4 3 C2.60667426 6.36720387 1.0210714 7.9859524 -2 10 C-2 9.34 -2 8.68 -2 8 C-2.66 7.67 -3.32 7.34 -4 7 C-3.01 6.34 -2.02 5.68 -1 5 C-0.27034634 2.43717258 -0.27034634 2.43717258 0 0 Z " fill="#4E524A" transform="translate(82,52)"/>
<path d="M0 0 C4.2742558 1.5830577 6.26531794 4.50568404 9 8 C4.125 6.25 4.125 6.25 3 4 C2.236875 4.165 1.47375 4.33 0.6875 4.5 C-2 5 -2 5 -5 5 C-3.35 3.35 -1.7 1.7 0 0 Z " fill="#45B296" transform="translate(99,134)"/>
<path d="M0 0 C2.64 0 5.28 0 8 0 C8 1.65 8 3.3 8 5 C5.37886292 5 3.49064888 4.68707555 1 4 C0.67 2.68 0.34 1.36 0 0 Z " fill="#F2F3F2" transform="translate(141,111)"/>
<path d="M0 0 C2.64 0.99 5.28 1.98 8 3 C4.91190305 4.76462683 3.76687864 5 0 5 C-0.66 4.34 -1.32 3.68 -2 3 C-1.34 2.01 -0.68 1.02 0 0 Z " fill="#0EAC89" transform="translate(34,93)"/>
<path d="M0 0 C2.625 0.9375 2.625 0.9375 5 2 C4.67 2.66 4.34 3.32 4 4 C1.71484375 4.6328125 1.71484375 4.6328125 -1.0625 5.125 C-1.98160156 5.29257813 -2.90070313 5.46015625 -3.84765625 5.6328125 C-4.91306641 5.81457031 -4.91306641 5.81457031 -6 6 C-2.25 1.125 -2.25 1.125 0 0 Z " fill="#30AB8E" transform="translate(163,91)"/>
<path d="M0 0 C2.125 0.375 2.125 0.375 4 1 C4 1.66 4 2.32 4 3 C4.99 3.33 5.98 3.66 7 4 C7.33 4.99 7.66 5.98 8 7 C5.13275314 6.42655063 4.1385485 6.1385485 2 4 C0.68252676 3.30251417 -0.64914193 2.63040043 -2 2 C-1.34 1.34 -0.68 0.68 0 0 Z " fill="#C2F7EE" transform="translate(153,101)"/>
<path d="M0 0 C1.98 1.65 3.96 3.3 6 5 C3.37886292 5 1.49064888 4.68707555 -1 4 C-1.99 5.485 -1.99 5.485 -3 7 C-3.66 7 -4.32 7 -5 7 C-5 6.01 -5 5.02 -5 4 C-2.5 1.8125 -2.5 1.8125 0 0 Z " fill="#39A68C" transform="translate(35,90)"/>
<path d="M0 0 C3.36720387 1.39332574 4.9859524 2.9789286 7 6 C5.68 6.33 4.36 6.66 3 7 C2.67 5.68 2.34 4.36 2 3 C1.34 3 0.68 3 0 3 C0 3.66 0 4.32 0 5 C-0.66 4.67 -1.32 4.34 -2 4 C-1.34 2.68 -0.68 1.36 0 0 Z " fill="#484B49" transform="translate(99,70)"/>
<path d="M0 0 C0 3 0 3 -1.5 4.5625 C-1.995 5.036875 -2.49 5.51125 -3 6 C-3 6.66 -3 7.32 -3 8 C-6 10 -6 10 -8.1875 9.625 C-8.785625 9.41875 -9.38375 9.2125 -10 9 C-9.01 8.67 -8.02 8.34 -7 8 C-7 7.34 -7 6.68 -7 6 C-6.34 6 -5.68 6 -5 6 C-5 5.34 -5 4.68 -5 4 C-3.37373596 2.61767557 -1.7074998 1.28062485 0 0 Z " fill="#545452" transform="translate(45,36)"/>
<path d="M0 0 C1.32 0.66 2.64 1.32 4 2 C1.69 4.31 -0.62 6.62 -3 9 C-3.33 8.01 -3.66 7.02 -4 6 C-2.0625 2.8125 -2.0625 2.8125 0 0 Z " fill="#4A4B48" transform="translate(163,150)"/>
<path d="M0 0 C0.66 0 1.32 0 2 0 C2.66 0.66 3.32 1.32 4 2 C6.60280568 1.67958603 6.60280568 1.67958603 9 1 C8.25 2.9375 8.25 2.9375 7 5 C4.875 5.75 4.875 5.75 3 6 C0 2.25 0 2.25 0 0 Z " fill="#DAFAF7" transform="translate(150,93)"/>
<path d="M0 0 C0.66 0.66 1.32 1.32 2 2 C1.625 4.125 1.625 4.125 1 6 C-0.32 6.33 -1.64 6.66 -3 7 C-3.33 6.01 -3.66 5.02 -4 4 C-2.68 2.68 -1.36 1.36 0 0 Z " fill="#444643" transform="translate(83,86)"/>
<path d="M0 0 C2.4375 0.625 2.4375 0.625 5 2 C6.10314892 5.62463216 6.24103707 8.41478179 5 12 C3.35 12 1.7 12 0 12 C0.680625 11.2575 1.36125 10.515 2.0625 9.75 C4.22055475 7.27077187 4.22055475 7.27077187 3.9375 4.875 C2.90219203 2.80438407 1.73999647 1.51304041 0 0 Z " fill="#B5EFE4" transform="translate(104,30)"/>
<path d="M0 0 C1.14926266 0.95421808 2.29430541 1.91352045 3.4375 2.875 C4.07558594 3.40867188 4.71367188 3.94234375 5.37109375 4.4921875 C7 6 7 6 8 8 C4.32579134 7.69381595 3.21864487 7.24228216 0.6875 4.4375 C0.130625 3.633125 -0.42625 2.82875 -1 2 C-0.67 1.34 -0.34 0.68 0 0 Z " fill="#50514E" transform="translate(74,44)"/>
<path d="M0 0 C2.4375 0.75 2.4375 0.75 5 2 C5.8125 4.125 5.8125 4.125 6 6 C3.61435923 5.42415568 1.33317216 4.77772405 -1 4 C-0.67 2.68 -0.34 1.36 0 0 Z " fill="#E7F9F7" transform="translate(48,105)"/>
<path d="M0 0 C2.88437779 1.29299694 4.87219421 2.65941363 7 5 C6.67 5.66 6.34 6.32 6 7 C4.02 6.01 2.04 5.02 0 4 C0 2.68 0 1.36 0 0 Z " fill="#C9F4EC" transform="translate(25,101)"/>
<path d="M0 0 C1.14926266 0.95421808 2.29430541 1.91352045 3.4375 2.875 C4.07558594 3.40867187 4.71367188 3.94234375 5.37109375 4.4921875 C7 6 7 6 8 8 C4.32579134 7.69381595 3.21864487 7.24228216 0.6875 4.4375 C0.130625 3.633125 -0.42625 2.82875 -1 2 C-0.67 1.34 -0.34 0.68 0 0 Z " fill="#525250" transform="translate(114,84)"/>
<path d="M0 0 C1.32 0 2.64 0 4 0 C4 0.66 4 1.32 4 2 C5.32 2.33 6.64 2.66 8 3 C8 4.65 8 6.3 8 8 C6.85073734 7.04578192 5.70569459 6.08647955 4.5625 5.125 C3.92441406 4.59132813 3.28632812 4.05765625 2.62890625 3.5078125 C1 2 1 2 0 0 Z " fill="#666664" transform="translate(40,71)"/>
<path d="M0 0 C3.36720387 1.39332574 4.9859524 2.9789286 7 6 C6.34 6 5.68 6 5 6 C5 6.66 5 7.32 5 8 C4.34 8 3.68 8 3 8 C2.67 7.01 2.34 6.02 2 5 C1.34 4.34 0.68 3.68 0 3 C0 2.01 0 1.02 0 0 Z " fill="#4F504F" transform="translate(143,26)"/>
<path d="M0 0 C0.33 1.32 0.66 2.64 1 4 C0.01 4.33 -0.98 4.66 -2 5 C-2.73323796 7.01508358 -2.73323796 7.01508358 -3 9 C-3.99 9 -4.98 9 -6 9 C-5.52797514 4.75177626 -3.03344482 2.80010291 0 0 Z " fill="#44AF94" transform="translate(96,157)"/>
<path d="M0 0 C1.65 0 3.3 0 5 0 C4.67 1.32 4.34 2.64 4 4 C2.68 4.33 1.36 4.66 0 5 C-0.33 4.01 -0.66 3.02 -1 2 C-0.67 1.34 -0.34 0.68 0 0 Z " fill="#444442" transform="translate(136,120)"/>
<path d="M0 0 C0.33 1.32 0.66 2.64 1 4 C-0.65 5.32 -2.3 6.64 -4 8 C-4.33 6.68 -4.66 5.36 -5 4 C-4.34 4 -3.68 4 -3 4 C-3 3.34 -3 2.68 -3 2 C-2.01 1.34 -1.02 0.68 0 0 Z " fill="#D4F9F4" transform="translate(94,47)"/>
<path d="M0 0 C1.32 0.99 2.64 1.98 4 3 C2.63016497 6.16115776 2.0109362 6.9927092 -1 9 C-0.67 6.03 -0.34 3.06 0 0 Z " fill="#3CB094" transform="translate(170,96)"/>
<path d="M0 0 C1.98 1.65 3.96 3.3 6 5 C4.125 6.0625 4.125 6.0625 2 7 C0 6 0 6 -0.6875 4.0625 C-1 2 -1 2 0 0 Z " fill="#4F4F4E" transform="translate(162,44)"/>
<path d="M0 0 C1.32 0.66 2.64 1.32 4 2 C1.03 4.475 1.03 4.475 -2 7 C-2.125 4.625 -2.125 4.625 -2 2 C-1.34 1.34 -0.68 0.68 0 0 Z " fill="#4A4A48" transform="translate(155,158)"/>
<path d="M0 0 C0.66 1.32 1.32 2.64 2 4 C-0.97 6.475 -0.97 6.475 -4 9 C-3.67 7.35 -3.34 5.7 -3 4 C-2.01 3.67 -1.02 3.34 0 3 C0 2.01 0 1.02 0 0 Z " fill="#484846" transform="translate(168,57)"/>
<path d="M0 0 C1.32 0.66 2.64 1.32 4 2 C0.66666667 3.66666667 -2.66666667 5.33333333 -6 7 C-4.60667426 3.63279613 -3.0210714 2.0140476 0 0 Z " fill="#585958" transform="translate(126,43)"/>
<path d="M0 0 C0.99 0.33 1.98 0.66 3 1 C3 1.66 3 2.32 3 3 C3.66 3 4.32 3 5 3 C5.33 4.32 5.66 5.64 6 7 C2.942048 5.26440562 0.36620011 3.61527381 -2 1 C-1.34 0.67 -0.68 0.34 0 0 Z " fill="#D7FBF6" transform="translate(101,24)"/>
<path d="M0 0 C0.33 0.99 0.66 1.98 1 3 C-0.25 4.5625 -0.25 4.5625 -2 6 C-4.125 5.8125 -4.125 5.8125 -6 5 C-6.33 4.34 -6.66 3.68 -7 3 C-5.02 3 -3.04 3 -1 3 C-0.67 2.01 -0.34 1.02 0 0 Z " fill="#43B197" transform="translate(103,168)"/>
<path d="M0 0 C0.33 0.66 0.66 1.32 1 2 C1.99 2.33 2.98 2.66 4 3 C2.35 4.65 0.7 6.3 -1 8 C-0.67 5.36 -0.34 2.72 0 0 Z " fill="#474946" transform="translate(104,119)"/>
<path d="M0 0 C1.32 0.33 2.64 0.66 4 1 C2.33333333 2.66666667 0.66666667 4.33333333 -1 6 C-1.99 6 -2.98 6 -4 6 C-2.68 4.02 -1.36 2.04 0 0 Z " fill="#474846" transform="translate(48,120)"/>
<path d="M0 0 C0 1.65 0 3.3 0 5 C-0.99 5.33 -1.98 5.66 -3 6 C-3.99 5.34 -4.98 4.68 -6 4 C-2.25 0 -2.25 0 0 0 Z " fill="#40423F" transform="translate(56,115)"/>
<path d="M0 0 C0.7425 0.763125 1.485 1.52625 2.25 2.3125 C4.4263323 4.4393702 6.52167796 6.2559956 9 8 C7.68 8.33 6.36 8.66 5 9 C4.16094435 7.87926138 3.32892169 6.75325453 2.5 5.625 C2.0359375 4.99851563 1.571875 4.37203125 1.09375 3.7265625 C0 2 0 2 0 0 Z " fill="#C5F3EA" transform="translate(92,167)"/>
<path d="M0 0 C0.99 0.33 1.98 0.66 3 1 C3 2.98 3 4.96 3 7 C1.35 5.35 -0.3 3.7 -2 2 C-1.34 1.34 -0.68 0.68 0 0 Z " fill="#595957" transform="translate(125,152)"/>
<path d="M0 0 C2.475 0.495 2.475 0.495 5 1 C5.33 1.99 5.66 2.98 6 4 C4.02 4.66 2.04 5.32 0 6 C0 4.02 0 2.04 0 0 Z " fill="#44B999" transform="translate(151,97)"/>
<path d="M0 0 C1.9375 0.375 1.9375 0.375 4 1 C4.33 1.66 4.66 2.32 5 3 C6.64363134 3.72159424 8.31050386 4.39351421 10 5 C9.01 6.485 9.01 6.485 8 8 C6.2925002 6.71937515 4.62626404 5.38232443 3 4 C3 3.34 3 2.68 3 2 C2.01 1.67 1.02 1.34 0 1 C0 0.67 0 0.34 0 0 Z " fill="#B8F0E4" transform="translate(165,91)"/>
<path d="M0 0 C0.66 0.99 1.32 1.98 2 3 C1.0409375 3.433125 1.0409375 3.433125 0.0625 3.875 C-2.15206079 4.82823451 -2.15206079 4.82823451 -3 7 C-3.66 6.34 -4.32 5.68 -5 5 C-3.35 3.35 -1.7 1.7 0 0 Z " fill="#27B08C" transform="translate(141,92)"/>
<path d="M0 0 C1.98 0.495 1.98 0.495 4 1 C4.33 2.32 4.66 3.64 5 5 C4.01 5.33 3.02 5.66 2 6 C1.01 5.01 0.02 4.02 -1 3 C-0.01 2.67 0.98 2.34 2 2 C1.34 1.34 0.68 0.68 0 0 Z " fill="#474944" transform="translate(136,75)"/>
<path d="M0 0 C0 3.20395416 -0.74335022 5.09399739 -2 8 C-2.99 7.34 -3.98 6.68 -5 6 C-3.63016497 2.83884224 -3.0109362 2.0072908 0 0 Z " fill="#6E6E6E" transform="translate(30,51)"/>
<path d="M0 0 C1.32 0.66 2.64 1.32 4 2 C2.35 3.32 0.7 4.64 -1 6 C-1.33 5.01 -1.66 4.02 -2 3 C-1.34 2.01 -0.68 1.02 0 0 Z " fill="#494947" transform="translate(147,166)"/>
<path d="M0 0 C1.32 0.33 2.64 0.66 4 1 C2.515 3.475 2.515 3.475 1 6 C0.01 5.67 -0.98 5.34 -2 5 C-2 4.01 -2 3.02 -2 2 C-1.34 2 -0.68 2 0 2 C0 1.34 0 0.68 0 0 Z " fill="#40BA9C" transform="translate(100,150)"/>
<path d="M0 0 C1.04449911 3.13349732 0.93423645 3.98968256 0 7 C-0.99 6.67 -1.98 6.34 -3 6 C-2.42655063 3.13275314 -2.1385485 2.1385485 0 0 Z " fill="#41413F" transform="translate(118,139)"/>
<path d="M0 0 C1.32 0.33 2.64 0.66 4 1 C2.68 2.32 1.36 3.64 0 5 C-2.475 4.01 -2.475 4.01 -5 3 C-4.34 2.67 -3.68 2.34 -3 2 C-2.01 2.33 -1.02 2.66 0 3 C0 2.01 0 1.02 0 0 Z " fill="#C4F8F0" transform="translate(47,94)"/>
<path d="M0 0 C1.65 0 3.3 0 5 0 C6.125 3.75 6.125 3.75 5 6 C3.35 4.02 1.7 2.04 0 0 Z " fill="#B7EEE6" transform="translate(145,91)"/>
<path d="M0 0 C2.31 0.33 4.62 0.66 7 1 C6.67 2.65 6.34 4.3 6 6 C3.97945196 4.35830472 1.97956942 2.69088222 0 1 C0 0.67 0 0.34 0 0 Z " fill="#585A57" transform="translate(48,167)"/>
<path d="M0 0 C1.98 1.65 3.96 3.3 6 5 C4.1875 5.625 4.1875 5.625 2 6 C1.01 5.34 0.02 4.68 -1 4 C-0.67 2.68 -0.34 1.36 0 0 Z " fill="#E2E2E2" transform="translate(42,161)"/>
<path d="M0 0 C0.99 0.33 1.98 0.66 3 1 C0.03 3.475 0.03 3.475 -3 6 C-2.625 3.5625 -2.625 3.5625 -2 1 C-1.34 0.67 -0.68 0.34 0 0 Z " fill="#CCFAF4" transform="translate(93,137)"/>
<path d="M0 0 C0.33 1.32 0.66 2.64 1 4 C-0.98 4.99 -0.98 4.99 -3 6 C-3.33 5.34 -3.66 4.68 -4 4 C-2.68 2.68 -1.36 1.36 0 0 Z " fill="#4B4B49" transform="translate(123,134)"/>
<path d="M0 0 C0.66 1.32 1.32 2.64 2 4 C1.34 4.66 0.68 5.32 0 6 C-2.125 5.625 -2.125 5.625 -4 5 C-2.68 3.35 -1.36 1.7 0 0 Z " fill="#D5F9F5" transform="translate(174,99)"/>
<path d="M0 0 C0.99 0.33 1.98 0.66 3 1 C2.34 2.65 1.68 4.3 1 6 C0.01 5.01 -0.98 4.02 -2 3 C-1.34 2.01 -0.68 1.02 0 0 Z " fill="#F0F6F3" transform="translate(108,72)"/>
<path d="M0 0 C1.65 1.65 3.3 3.3 5 5 C4.01 5.495 4.01 5.495 3 6 C2.01 5.67 1.02 5.34 0 5 C-0.33 4.01 -0.66 3.02 -1 2 C-0.67 1.34 -0.34 0.68 0 0 Z " fill="#D6FDF7" transform="translate(90,37)"/>
</svg>
