<svg 
 xmlns="http://www.w3.org/2000/svg"
 xmlns:xlink="http://www.w3.org/1999/xlink"
 width="0.625in" height="0.181in">
<path fill-rule="evenodd"  fill="rgb(255, 255, 255)"
 d="M43.347,9.479 L43.347,6.827 C43.347,6.446 43.256,6.154 43.075,5.952 C42.894,5.744 42.647,5.640 42.334,5.640 C42.015,5.640 41.763,5.744 41.576,5.952 C41.395,6.154 41.304,6.446 41.304,6.827 L41.304,9.479 L40.151,9.479 L40.151,4.678 L41.304,4.678 L41.304,5.276 C41.458,5.068 41.653,4.906 41.889,4.790 C42.131,4.669 42.394,4.608 42.680,4.608 C43.223,4.608 43.663,4.790 43.998,5.154 C44.333,5.513 44.500,6.015 44.500,6.662 L44.500,9.479 L43.347,9.479 ZM37.859,3.430 L39.012,3.430 L39.012,9.479 L37.859,9.479 L37.859,3.430 ZM36.230,9.540 C36.021,9.540 35.848,9.473 35.711,9.340 C35.579,9.202 35.513,9.031 35.513,8.829 C35.513,8.627 35.579,8.459 35.711,8.326 C35.848,8.188 36.021,8.118 36.230,8.118 C36.433,8.118 36.601,8.188 36.732,8.326 C36.864,8.459 36.930,8.627 36.930,8.829 C36.930,9.031 36.864,9.202 36.732,9.340 C36.601,9.473 36.433,9.540 36.230,9.540 ZM33.470,6.827 C33.470,6.446 33.379,6.154 33.198,5.952 C33.017,5.744 32.769,5.640 32.457,5.640 C32.138,5.640 31.885,5.744 31.699,5.952 C31.518,6.154 31.427,6.446 31.427,6.827 L31.427,9.479 L30.274,9.479 L30.274,3.066 L31.427,3.066 L31.427,5.276 C31.575,5.068 31.773,4.906 32.020,4.790 C32.267,4.669 32.542,4.608 32.844,4.608 C33.190,4.608 33.497,4.689 33.766,4.851 C34.035,5.007 34.244,5.241 34.392,5.553 C34.546,5.859 34.623,6.229 34.623,6.662 L34.623,9.479 L33.470,9.479 L33.470,6.827 ZM27.271,8.517 C27.738,8.517 28.043,8.297 28.185,7.858 L29.429,7.858 C29.303,8.378 29.053,8.792 28.680,9.098 C28.306,9.404 27.840,9.557 27.279,9.557 C26.840,9.557 26.450,9.456 26.110,9.254 C25.769,9.046 25.503,8.757 25.311,8.387 C25.119,8.012 25.023,7.575 25.023,7.078 C25.023,6.582 25.119,6.148 25.311,5.778 C25.503,5.403 25.769,5.114 26.110,4.912 C26.450,4.704 26.840,4.600 27.279,4.600 C27.845,4.600 28.312,4.750 28.680,5.050 C29.053,5.345 29.303,5.761 29.429,6.298 L28.185,6.298 C28.120,6.090 28.007,5.929 27.848,5.813 C27.694,5.692 27.502,5.631 27.271,5.631 C26.942,5.631 26.681,5.758 26.489,6.012 C26.297,6.261 26.200,6.616 26.200,7.078 C26.200,7.535 26.297,7.890 26.489,8.144 C26.681,8.393 26.942,8.517 27.271,8.517 ZM21.109,7.442 C21.136,7.789 21.252,8.061 21.455,8.257 C21.658,8.453 21.908,8.552 22.204,8.552 C22.633,8.552 22.937,8.358 23.119,7.971 L24.362,7.971 C24.230,8.433 23.978,8.815 23.604,9.115 C23.231,9.410 22.773,9.557 22.229,9.557 C21.790,9.557 21.394,9.456 21.043,9.254 C20.697,9.046 20.425,8.754 20.227,8.378 C20.035,8.003 19.939,7.569 19.939,7.078 C19.939,6.582 20.035,6.145 20.227,5.770 C20.420,5.394 20.689,5.105 21.035,4.903 C21.381,4.701 21.779,4.600 22.229,4.600 C22.663,4.600 23.050,4.698 23.390,4.894 C23.736,5.091 24.003,5.371 24.189,5.735 C24.381,6.093 24.478,6.506 24.478,6.974 C24.478,7.148 24.467,7.304 24.445,7.442 L21.109,7.442 ZM22.962,5.882 C22.753,5.692 22.498,5.596 22.196,5.596 C21.910,5.596 21.669,5.689 21.471,5.874 C21.279,6.053 21.161,6.304 21.117,6.628 L23.283,6.628 C23.278,6.316 23.171,6.067 22.962,5.882 ZM17.862,9.479 L16.709,9.479 L16.709,4.409 L15.177,4.409 L15.177,3.430 L19.394,3.430 L19.394,4.409 L17.862,4.409 L17.862,9.479 ZM3.126,12.912 C3.062,12.970 2.982,13.000 2.902,13.000 C2.827,13.000 2.752,12.974 2.690,12.922 C2.560,12.815 2.522,12.627 2.597,12.473 L4.987,7.583 L0.843,7.583 C0.700,7.583 0.572,7.489 0.522,7.348 C0.471,7.207 0.511,7.047 0.619,6.949 L8.169,0.088 C8.233,0.029 8.313,-0.000 8.393,-0.000 C8.468,-0.000 8.543,0.026 8.606,0.078 C8.735,0.184 8.774,0.373 8.699,0.526 L6.308,5.417 L10.452,5.417 C10.596,5.417 10.724,5.510 10.774,5.652 C10.824,5.793 10.785,5.952 10.676,6.051 L3.126,12.912 Z"/>
</svg>