<svg 
 xmlns="http://www.w3.org/2000/svg"
 xmlns:xlink="http://www.w3.org/1999/xlink"
 width="11px" height="12px">
<path fill-rule="evenodd"  fill="rgb(255, 255, 255)"
 d="M9.572,10.318 C9.083,10.882 8.309,11.180 7.334,11.180 L3.160,11.180 C2.088,11.180 1.342,10.918 0.877,10.378 C0.411,9.837 0.255,9.026 0.414,7.967 L0.802,4.954 C1.057,3.572 1.989,3.089 2.711,3.089 C2.774,2.514 3.033,1.968 3.444,1.558 C3.916,1.088 4.568,0.819 5.233,0.819 L5.244,0.819 C6.551,0.819 7.631,1.815 7.764,3.089 L7.801,3.089 C8.526,3.089 9.407,3.571 9.705,4.921 L10.099,7.975 C10.241,8.960 10.064,9.751 9.572,10.318 ZM5.242,1.569 L5.235,1.569 C4.764,1.569 4.306,1.759 3.973,2.089 C3.703,2.359 3.525,2.714 3.468,3.089 L7.008,3.089 C6.879,2.230 6.136,1.569 5.242,1.569 ZM9.356,8.076 L8.967,5.050 C8.801,4.304 8.363,3.839 7.801,3.839 L2.711,3.839 C2.491,3.839 1.754,3.928 1.542,5.070 L1.156,8.070 C1.031,8.912 1.128,9.521 1.445,9.889 C1.759,10.253 2.320,10.430 3.160,10.430 L7.334,10.430 C7.858,10.430 8.573,10.326 9.005,9.827 C9.348,9.431 9.466,8.842 9.356,8.076 ZM6.725,5.981 L6.702,5.981 C6.495,5.981 6.327,5.813 6.327,5.606 C6.327,5.399 6.495,5.231 6.702,5.231 C6.909,5.231 7.089,5.399 7.089,5.606 C7.089,5.813 6.932,5.981 6.725,5.981 ZM3.810,5.981 L3.787,5.981 C3.580,5.981 3.412,5.813 3.412,5.606 C3.412,5.399 3.580,5.231 3.787,5.231 C3.994,5.231 4.174,5.399 4.174,5.606 C4.174,5.813 4.017,5.981 3.810,5.981 Z"/>
</svg>